<?xml version="1.0" encoding="utf-8" standalone="no"?>
<!DOCTYPE svg PUBLIC "-//W3C//DTD SVG 1.1//EN"
  "http://www.w3.org/Graphics/SVG/1.1/DTD/svg11.dtd">
<svg xmlns:xlink="http://www.w3.org/1999/xlink" width="1152pt" height="216pt" viewBox="0 0 1152 216" xmlns="http://www.w3.org/2000/svg" version="1.1">
 <metadata>
  <rdf:RDF xmlns:dc="http://purl.org/dc/elements/1.1/" xmlns:cc="http://creativecommons.org/ns#" xmlns:rdf="http://www.w3.org/1999/02/22-rdf-syntax-ns#">
   <cc:Work>
    <dc:type rdf:resource="http://purl.org/dc/dcmitype/StillImage"/>
    <dc:date>2024-07-25T16:33:48.634725</dc:date>
    <dc:format>image/svg+xml</dc:format>
    <dc:creator>
     <cc:Agent>
      <dc:title>Matplotlib v3.8.4, https://matplotlib.org/</dc:title>
     </cc:Agent>
    </dc:creator>
   </cc:Work>
  </rdf:RDF>
 </metadata>
 <defs>
  <style type="text/css">*{stroke-linejoin: round; stroke-linecap: butt}</style>
 </defs>
 <g id="figure_1">
  <g id="patch_1">
   <path d="M 0 216 
L 1152 216 
L 1152 0 
L 0 0 
z
" style="fill: #ffffff"/>
  </g>
  <g id="axes_1">
   <g id="patch_2">
    <path d="M 144 192.24 
L 367.2 192.24 
L 367.2 25.92 
L 144 25.92 
z
" style="fill: #ffffff"/>
   </g>
   <g id="matplotlib.axis_1"/>
   <g id="matplotlib.axis_2"/>
   <g id="line2d_1">
    <path d="M 154.145455 179.95208 
L 154.82408 182.097729 
L 155.502706 178.162016 
L 156.181332 178.984036 
L 156.859957 178.116844 
L 157.538583 180.564133 
L 158.217209 179.067543 
L 158.895835 181.101131 
L 159.57446 179.878914 
L 160.253086 177.101946 
L 160.931712 179.143828 
L 161.610337 175.949364 
L 162.288963 178.055247 
L 162.967589 178.514829 
L 163.646215 176.995376 
L 164.32484 178.961039 
L 165.003466 178.676411 
L 165.682092 179.59791 
L 166.360718 175.85846 
L 167.039343 175.445658 
L 167.717969 180.459996 
L 168.396595 175.519912 
L 169.07522 174.066592 
L 170.432472 176.082855 
L 171.111098 175.058099 
L 171.789723 174.544758 
L 173.146975 167.698989 
L 173.8256 166.482932 
L 174.504226 166.850827 
L 175.182852 168.209481 
L 175.861478 163.452627 
L 176.540103 163.658745 
L 177.218729 159.100681 
L 177.897355 160.291207 
L 178.575981 160.285913 
L 179.254606 156.096546 
L 180.611858 150.408288 
L 181.290483 147.889362 
L 181.969109 144.566125 
L 182.647735 146.199839 
L 183.326361 137.585302 
L 184.004986 134.21109 
L 184.683612 132.324268 
L 185.362238 129.795499 
L 186.719489 121.210946 
L 188.076741 109.255103 
L 188.755366 105.712315 
L 189.433992 103.008069 
L 190.112618 100.969102 
L 190.791244 91.999297 
L 191.469869 91.412051 
L 192.148495 85.786269 
L 192.827121 79.173206 
L 193.505746 77.466434 
L 194.184372 75.097888 
L 194.862998 66.631607 
L 195.541624 62.908239 
L 196.220249 61.355241 
L 196.898875 54.433982 
L 197.577501 50.753307 
L 198.256126 50.490338 
L 198.934752 45.554093 
L 199.613378 47.286141 
L 200.292004 44.072862 
L 200.970629 39.911625 
L 201.649255 39.990146 
L 202.327881 37.500131 
L 203.006507 38.142433 
L 203.685132 33.48 
L 204.363758 34.976622 
L 205.042384 34.88934 
L 205.721009 35.93571 
L 206.399635 35.377502 
L 207.756887 39.387865 
L 208.435512 40.192219 
L 209.114138 42.659396 
L 209.792764 47.629127 
L 210.471389 46.385466 
L 211.150015 51.713142 
L 211.828641 52.355737 
L 212.507267 54.85609 
L 213.185892 59.017969 
L 213.864518 62.436019 
L 214.543144 69.285979 
L 215.22177 68.883079 
L 215.900395 76.112709 
L 216.579021 81.574791 
L 217.257647 85.928963 
L 217.936272 86.116043 
L 218.614898 91.341505 
L 219.293524 94.881863 
L 221.329401 111.04998 
L 222.008027 110.896199 
L 223.365278 125.491177 
L 224.043904 124.566949 
L 224.72253 132.342176 
L 225.401155 135.705185 
L 226.079781 135.519668 
L 226.758407 138.243334 
L 227.437033 144.059508 
L 228.115658 147.156188 
L 228.794284 148.457823 
L 230.151535 155.04346 
L 230.830161 153.649458 
L 231.508787 159.054788 
L 232.187413 163.358403 
L 232.866038 158.592888 
L 233.544664 164.797669 
L 234.22329 165.431462 
L 234.901915 166.673763 
L 235.580541 164.756453 
L 236.259167 169.095463 
L 236.937793 168.253434 
L 237.616418 171.950056 
L 238.295044 172.760102 
L 238.97367 175.866338 
L 239.652296 173.841427 
L 240.330921 177.432587 
L 241.009547 177.514934 
L 241.688173 175.94971 
L 242.366798 178.3706 
L 243.045424 178.565069 
L 243.72405 176.021588 
L 244.402676 178.79464 
L 245.081301 177.904436 
L 245.759927 176.216321 
L 246.438553 179.202765 
L 247.117178 180.268029 
L 247.795804 178.829549 
L 248.47443 179.894022 
L 249.153056 178.352914 
L 249.831681 180.680543 
L 250.510307 178.488916 
L 251.188933 178.842716 
L 251.867559 174.840916 
L 252.546184 177.355101 
L 253.22481 178.98477 
L 253.903436 182.459638 
L 254.582061 181.675824 
L 255.260687 178.842763 
L 255.939313 179.472539 
L 256.617939 181.560895 
L 257.296564 177.088273 
L 257.97519 181.474835 
L 258.653816 178.878618 
L 259.332441 178.625978 
L 260.011067 180.298079 
L 260.689693 179.894929 
L 261.368319 180.812198 
L 262.046944 175.660857 
L 262.72557 181.09472 
L 263.404196 180.843711 
L 264.082822 182.652007 
L 264.761447 181.480443 
L 265.440073 178.081533 
L 266.118699 179.576883 
L 266.797324 181.787411 
L 267.47595 181.175334 
L 268.154576 177.368173 
L 268.833202 180.693993 
L 269.511827 182.099697 
L 270.190453 179.866204 
L 270.869079 181.958914 
L 272.22633 176.575469 
L 272.904956 179.41633 
L 273.583582 178.567316 
L 274.262207 178.995414 
L 274.940833 181.659341 
L 275.619459 182.11459 
L 276.298085 180.133989 
L 276.97671 180.823095 
L 277.655336 180.63566 
L 278.333962 177.966935 
L 279.012587 178.188932 
L 279.691213 184.515357 
L 280.369839 179.037419 
L 281.048465 182.354955 
L 281.72709 182.287905 
L 282.405716 181.198325 
L 283.084342 179.657634 
L 283.762967 177.544849 
L 284.441593 179.585271 
L 285.120219 179.001436 
L 285.798845 175.587764 
L 286.47747 182.739003 
L 287.156096 182.830821 
L 287.834722 181.593351 
L 288.513348 177.15422 
L 289.191973 177.979194 
L 289.870599 178.600161 
L 290.549225 181.37277 
L 291.22785 179.003105 
L 291.906476 181.24517 
L 292.585102 181.194796 
L 293.263728 177.795222 
L 293.942353 181.541831 
L 294.620979 182.748521 
L 295.299605 181.232265 
L 295.97823 180.927716 
L 296.656856 182.723902 
L 297.335482 180.950318 
L 298.014108 179.979699 
L 298.692733 178.066566 
L 299.371359 182.18196 
L 300.049985 180.968162 
L 300.728611 179.201826 
L 301.407236 179.041312 
L 302.085862 179.083295 
L 302.764488 182.089201 
L 303.443113 176.370147 
L 304.800365 183.245412 
L 305.478991 175.04498 
L 306.157616 180.150463 
L 306.836242 178.161675 
L 307.514868 180.740732 
L 308.193493 181.461304 
L 308.872119 178.661508 
L 310.229371 180.860698 
L 310.907996 182.862029 
L 311.586622 180.662559 
L 312.265248 180.643801 
L 312.943874 182.403616 
L 313.622499 176.444245 
L 314.301125 182.678149 
L 314.979751 178.698874 
L 315.658376 180.211362 
L 316.337002 178.216708 
L 317.015628 179.590436 
L 317.694254 180.04481 
L 318.372879 176.42271 
L 319.051505 183.070172 
L 319.730131 176.846944 
L 320.408756 181.517888 
L 321.087382 184.68 
L 322.444634 179.440252 
L 323.123259 180.403179 
L 323.801885 180.855528 
L 324.480511 183.781188 
L 325.159137 178.170179 
L 325.837762 178.794293 
L 326.516388 184.55264 
L 327.195014 177.457339 
L 327.873639 178.819677 
L 328.552265 181.671555 
L 329.230891 179.407713 
L 329.909517 179.943386 
L 331.266768 180.211621 
L 331.945394 178.628128 
L 332.624019 180.437011 
L 333.302645 177.678274 
L 333.981271 179.263901 
L 334.659897 176.239723 
L 335.338522 179.106022 
L 336.017148 178.910185 
L 336.695774 179.306881 
L 337.3744 180.422443 
L 338.053025 177.953764 
L 338.731651 181.362623 
L 339.410277 181.396057 
L 340.088902 181.289613 
L 340.767528 183.38382 
L 341.446154 183.07247 
L 342.12478 181.390174 
L 342.803405 180.45035 
L 343.482031 183.325093 
L 344.160657 178.18334 
L 344.839282 181.138385 
L 345.517908 180.120665 
L 346.196534 177.844338 
L 346.87516 180.520858 
L 347.553785 178.625267 
L 348.232411 177.857689 
L 348.911037 180.823876 
L 349.589663 179.328839 
L 350.268288 177.084598 
L 350.946914 183.775679 
L 351.62554 179.600796 
L 352.304165 181.285568 
L 352.982791 179.407772 
L 353.661417 178.328377 
L 354.340043 181.114703 
L 355.018668 178.343811 
L 355.697294 177.171897 
L 356.37592 179.720597 
L 357.054545 181.220232 
L 357.054545 181.220232 
" clip-path="url(#p4df02b2572)" style="fill: none; stroke: #440154; stroke-width: 3; stroke-linecap: square"/>
   </g>
   <g id="patch_3">
    <path d="M 144 192.24 
L 144 25.92 
" style="fill: none; stroke: #000000; stroke-width: 0.8; stroke-linejoin: miter; stroke-linecap: square"/>
   </g>
   <g id="patch_4">
    <path d="M 367.2 192.24 
L 367.2 25.92 
" style="fill: none; stroke: #000000; stroke-width: 0.8; stroke-linejoin: miter; stroke-linecap: square"/>
   </g>
   <g id="patch_5">
    <path d="M 144 192.24 
L 367.2 192.24 
" style="fill: none; stroke: #000000; stroke-width: 0.8; stroke-linejoin: miter; stroke-linecap: square"/>
   </g>
   <g id="patch_6">
    <path d="M 144 25.92 
L 367.2 25.92 
" style="fill: none; stroke: #000000; stroke-width: 0.8; stroke-linejoin: miter; stroke-linecap: square"/>
   </g>
  </g>
  <g id="axes_2">
   <g id="patch_7">
    <path d="M 367.2 192.24 
L 590.4 192.24 
L 590.4 25.92 
L 367.2 25.92 
z
" style="fill: #ffffff"/>
   </g>
   <g id="matplotlib.axis_3"/>
   <g id="matplotlib.axis_4"/>
   <g id="line2d_2">
    <path d="M 377.345455 109.08 
L 580.254545 109.08 
L 580.254545 109.08 
" clip-path="url(#p20d70a4b94)" style="fill: none; stroke: #31688e; stroke-width: 3; stroke-linecap: square"/>
   </g>
   <g id="patch_8">
    <path d="M 367.2 192.24 
L 367.2 25.92 
" style="fill: none; stroke: #000000; stroke-width: 0.8; stroke-linejoin: miter; stroke-linecap: square"/>
   </g>
   <g id="patch_9">
    <path d="M 590.4 192.24 
L 590.4 25.92 
" style="fill: none; stroke: #000000; stroke-width: 0.8; stroke-linejoin: miter; stroke-linecap: square"/>
   </g>
   <g id="patch_10">
    <path d="M 367.2 192.24 
L 590.4 192.24 
" style="fill: none; stroke: #000000; stroke-width: 0.8; stroke-linejoin: miter; stroke-linecap: square"/>
   </g>
   <g id="patch_11">
    <path d="M 367.2 25.92 
L 590.4 25.92 
" style="fill: none; stroke: #000000; stroke-width: 0.8; stroke-linejoin: miter; stroke-linecap: square"/>
   </g>
  </g>
  <g id="axes_3">
   <g id="patch_12">
    <path d="M 590.4 192.24 
L 813.6 192.24 
L 813.6 25.92 
L 590.4 25.92 
z
" style="fill: #ffffff"/>
   </g>
   <g id="matplotlib.axis_5"/>
   <g id="matplotlib.axis_6"/>
   <g id="line2d_3">
    <path d="M 600.545455 183.535172 
L 601.22408 184.257108 
L 601.902706 182.934179 
L 602.581332 183.213976 
L 603.259957 182.927441 
L 603.938583 183.758657 
L 604.617209 183.265621 
L 605.295835 183.963788 
L 605.97446 183.570223 
L 606.653086 182.657908 
L 607.331712 183.372196 
L 608.010337 182.330278 
L 608.688963 183.07853 
L 609.367589 183.280325 
L 610.046215 182.824691 
L 610.72484 183.55138 
L 611.403466 183.531634 
L 612.082092 183.929815 
L 612.760718 182.773067 
L 613.439343 182.75069 
L 614.117969 184.571103 
L 614.796595 183.060181 
L 615.47522 182.742657 
L 616.832472 183.832267 
L 617.511098 183.731184 
L 618.189723 183.83051 
L 619.546975 182.164992 
L 620.2256 182.126368 
L 620.904226 182.658174 
L 621.582852 183.563089 
L 622.261478 182.452119 
L 622.940103 183.055294 
L 623.618729 182.101518 
L 624.297355 183.130211 
L 624.975981 183.806337 
L 625.654606 183.125879 
L 626.333232 182.875041 
L 628.369109 182.696964 
L 629.047735 184.245151 
L 629.726361 182.398585 
L 630.404986 182.368053 
L 631.083612 182.889133 
L 631.762238 183.243212 
L 633.119489 182.900388 
L 634.476741 181.579918 
L 635.155366 181.786604 
L 635.833992 182.29998 
L 636.512618 183.055705 
L 637.191244 181.49117 
L 637.869869 182.752269 
L 638.548495 182.315416 
L 639.227121 181.536045 
L 639.905746 182.389215 
L 640.584372 182.992948 
L 641.262998 181.509553 
L 641.941624 181.578281 
L 642.620249 182.324888 
L 643.298875 181.204151 
L 643.977501 181.104589 
L 644.656126 182.077745 
L 645.334752 181.39333 
L 646.013378 182.860481 
L 646.692004 182.564519 
L 647.370629 181.844415 
L 648.049255 182.440361 
L 648.727881 182.056674 
L 649.406507 182.607755 
L 650.085132 181.251489 
L 650.763758 181.843205 
L 651.442384 181.776135 
L 652.121009 181.964356 
L 652.799635 181.487011 
L 654.156887 181.88731 
L 654.835512 181.50387 
L 655.514138 181.565381 
L 656.192764 182.359198 
L 656.871389 180.957922 
L 657.550015 181.669685 
L 658.228641 180.713413 
L 658.907267 180.297886 
L 659.585892 180.364594 
L 660.264518 180.111957 
L 660.943144 180.953111 
L 661.62177 179.300789 
L 662.300395 180.172013 
L 662.979021 180.411757 
L 663.657647 180.249895 
L 664.336272 178.664694 
L 665.014898 178.76112 
L 665.693524 178.283715 
L 667.050775 178.448907 
L 667.729401 178.739929 
L 668.408027 177.052218 
L 669.765278 178.756011 
L 670.443904 176.880109 
L 671.12253 177.960588 
L 671.801155 177.586937 
L 672.479781 176.050601 
L 673.158407 175.52469 
L 673.837033 176.070301 
L 674.515658 175.730427 
L 675.194284 174.814155 
L 676.551535 174.393141 
L 677.230161 172.63383 
L 677.908787 173.175196 
L 678.587413 173.353061 
L 679.266038 170.480155 
L 679.944664 171.292623 
L 681.301915 169.322279 
L 681.980541 167.332235 
L 682.659167 167.40382 
L 683.337793 165.67618 
L 684.016418 165.406291 
L 684.695044 164.080279 
L 685.37367 163.424907 
L 686.052296 160.921489 
L 686.730921 160.164461 
L 687.409547 158.058427 
L 688.088173 155.201382 
L 688.766798 153.45685 
L 689.445424 150.697733 
L 690.12405 146.710393 
L 690.802676 144.158293 
L 691.481301 139.967382 
L 692.159927 135.044093 
L 692.838553 131.167684 
L 693.517178 126.054129 
L 694.87443 112.96873 
L 696.910307 87.594696 
L 697.588933 78.172176 
L 698.267559 67.01068 
L 699.62481 49.73175 
L 700.982061 37.403274 
L 701.660687 33.48 
L 702.339313 33.683501 
L 703.696564 41.411698 
L 709.12557 113.100372 
L 710.482822 126.478891 
L 711.161447 131.492475 
L 711.840073 135.156699 
L 713.197324 144.471203 
L 713.87595 147.642103 
L 714.554576 149.369652 
L 715.233202 153.174469 
L 715.911827 156.050046 
L 716.590453 157.452728 
L 717.269079 160.093147 
L 717.947704 160.959786 
L 718.62633 161.601832 
L 719.304956 163.984375 
L 719.983582 164.993417 
L 720.662207 166.315275 
L 721.340833 168.285552 
L 722.019459 169.420023 
L 722.698085 169.652144 
L 723.37671 170.708583 
L 724.055336 171.403637 
L 724.733962 171.203993 
L 725.412587 171.923196 
L 726.091213 174.647837 
L 726.769839 173.356261 
L 727.448465 174.984304 
L 728.12709 175.437026 
L 728.805716 175.512449 
L 729.484342 175.405699 
L 730.162967 175.078586 
L 730.841593 176.123389 
L 731.520219 176.261478 
L 732.198845 175.425384 
L 732.87747 178.123844 
L 733.556096 178.427526 
L 734.234722 178.265503 
L 734.913348 177.00831 
L 736.270599 177.914853 
L 736.949225 179.030187 
L 737.62785 178.395003 
L 738.306476 179.289253 
L 738.985102 179.386613 
L 739.663728 178.327466 
L 740.342353 179.638535 
L 741.020979 180.05473 
L 741.699605 179.508134 
L 742.37823 179.316225 
L 743.056856 179.772019 
L 743.735482 178.962381 
L 744.414108 178.355654 
L 745.092733 177.364309 
L 745.771359 178.337647 
L 746.449985 177.461874 
L 747.128611 176.357221 
L 748.485862 175.243267 
L 749.164488 175.738397 
L 749.843113 173.346891 
L 751.200365 174.978916 
L 751.878991 172.049454 
L 752.557616 173.731533 
L 753.236242 173.166756 
L 753.914868 174.277489 
L 754.593493 174.891516 
L 755.272119 174.432881 
L 756.629371 176.383657 
L 757.307996 177.731911 
L 757.986622 177.677833 
L 758.665248 178.345217 
L 759.343874 179.579055 
L 760.022499 178.168365 
L 760.701125 180.803539 
L 761.379751 179.939532 
L 762.058376 180.859809 
L 762.737002 180.538431 
L 763.415628 181.293598 
L 764.094254 181.688664 
L 764.772879 180.668189 
L 765.451505 183.066589 
L 766.130131 181.103917 
L 766.808756 182.782956 
L 767.487382 183.935301 
L 768.844634 182.308135 
L 769.523259 182.685994 
L 770.201885 182.885572 
L 770.880511 183.912484 
L 771.559137 182.063051 
L 772.237762 182.308758 
L 772.916388 184.279761 
L 773.595014 181.923632 
L 774.273639 182.411858 
L 774.952265 183.399928 
L 775.630891 182.665366 
L 776.309517 182.871749 
L 777.666768 183.011418 
L 778.345394 182.502003 
L 779.024019 183.133337 
L 779.702645 182.226958 
L 780.381271 182.781759 
L 781.059897 181.784732 
L 781.738522 182.769218 
L 782.417148 182.722726 
L 783.095774 182.875066 
L 783.7744 183.268775 
L 784.453025 182.455896 
L 785.131651 183.620304 
L 786.488902 183.629049 
L 787.167528 184.349752 
L 787.846154 184.260584 
L 788.52478 183.709703 
L 789.203405 183.408283 
L 789.882031 184.390087 
L 790.560657 182.674016 
L 791.239282 183.682149 
L 791.917908 183.353132 
L 792.596534 182.600282 
L 793.27516 183.513741 
L 793.953785 182.888405 
L 794.632411 182.642355 
L 795.311037 183.652426 
L 795.989663 183.161043 
L 796.668288 182.417296 
L 797.346914 184.68 
L 798.02554 183.286102 
L 798.704165 183.86372 
L 799.382791 183.242316 
L 800.061417 182.889349 
L 800.740043 183.836966 
L 801.418668 182.914389 
L 802.097294 182.529658 
L 802.77592 183.396702 
L 803.454545 183.910547 
L 803.454545 183.910547 
" clip-path="url(#p2700912aef)" style="fill: none; stroke: #35b779; stroke-width: 3; stroke-linecap: square"/>
   </g>
   <g id="patch_13">
    <path d="M 590.4 192.24 
L 590.4 25.92 
" style="fill: none; stroke: #000000; stroke-width: 0.8; stroke-linejoin: miter; stroke-linecap: square"/>
   </g>
   <g id="patch_14">
    <path d="M 813.6 192.24 
L 813.6 25.92 
" style="fill: none; stroke: #000000; stroke-width: 0.8; stroke-linejoin: miter; stroke-linecap: square"/>
   </g>
   <g id="patch_15">
    <path d="M 590.4 192.24 
L 813.6 192.24 
" style="fill: none; stroke: #000000; stroke-width: 0.8; stroke-linejoin: miter; stroke-linecap: square"/>
   </g>
   <g id="patch_16">
    <path d="M 590.4 25.92 
L 813.6 25.92 
" style="fill: none; stroke: #000000; stroke-width: 0.8; stroke-linejoin: miter; stroke-linecap: square"/>
   </g>
  </g>
  <g id="axes_4">
   <g id="patch_17">
    <path d="M 813.6 192.24 
L 1036.8 192.24 
L 1036.8 25.92 
L 813.6 25.92 
z
" style="fill: #ffffff"/>
   </g>
   <g id="matplotlib.axis_7"/>
   <g id="matplotlib.axis_8"/>
   <g id="line2d_4">
    <path d="M 823.745455 182.915691 
L 824.42408 184.022567 
L 825.102706 182.005989 
L 825.781332 182.437468 
L 826.459957 182.003849 
L 827.138583 183.27747 
L 827.817209 182.528258 
L 828.495835 183.598428 
L 829.17446 183.000864 
L 829.853086 181.61074 
L 830.531712 182.704935 
L 831.210337 181.116325 
L 831.888963 182.261778 
L 832.567589 182.57215 
L 833.246215 181.877871 
L 833.92484 182.989008 
L 834.603466 182.959396 
L 835.282092 183.567459 
L 835.960718 181.799662 
L 836.639343 181.763688 
L 837.317969 184.541509 
L 837.996595 182.229778 
L 838.67522 181.739696 
L 840.032472 183.389725 
L 840.711098 183.225837 
L 841.389723 183.366317 
L 842.746975 180.79402 
L 843.4256 180.717664 
L 844.104226 181.510274 
L 844.782852 182.870302 
L 845.461478 181.148527 
L 846.140103 182.042257 
L 846.818729 180.55491 
L 847.497355 182.092668 
L 848.175981 183.088762 
L 848.854606 182.009506 
L 849.533232 181.583169 
L 850.211858 181.466409 
L 850.890483 181.480651 
L 851.569109 181.161298 
L 852.247735 183.469341 
L 852.926361 180.588721 
L 853.604986 180.478758 
L 854.283612 181.208227 
L 854.962238 181.67963 
L 855.640863 181.407453 
L 856.319489 181.00899 
L 857.676741 178.835955 
L 858.355366 179.071013 
L 859.033992 179.773294 
L 859.712618 180.844948 
L 860.391244 178.372169 
L 861.069869 180.215563 
L 861.748495 179.466089 
L 862.427121 178.194657 
L 863.105746 179.41865 
L 863.784372 180.264022 
L 864.462998 177.924387 
L 865.141624 177.959138 
L 865.820249 179.033521 
L 866.498875 177.260427 
L 867.177501 177.052533 
L 867.856126 178.489145 
L 868.534752 177.40043 
L 869.213378 179.605196 
L 869.892004 179.12445 
L 870.570629 178.003862 
L 871.249255 178.90191 
L 871.927881 178.312413 
L 872.606507 179.15984 
L 873.285132 177.103257 
L 873.963758 178.031706 
L 874.642384 177.963617 
L 875.321009 178.295287 
L 875.999635 177.620187 
L 876.678261 178.076577 
L 877.356887 178.369055 
L 878.035512 177.866562 
L 878.714138 178.05314 
L 879.392764 179.367478 
L 880.071389 177.337845 
L 880.750015 178.544411 
L 881.428641 177.211425 
L 882.107267 176.712344 
L 882.785892 176.957425 
L 883.464518 176.721912 
L 884.143144 178.163922 
L 884.82177 175.803698 
L 885.500395 177.304141 
L 886.179021 177.845755 
L 886.857647 177.779346 
L 887.536272 175.543986 
L 888.214898 175.882126 
L 888.893524 175.34847 
L 890.250775 176.005551 
L 890.929401 176.659199 
L 891.608027 174.294993 
L 892.965278 177.339253 
L 893.643904 174.702574 
L 894.32253 176.58736 
L 895.001155 176.257302 
L 895.679781 174.158227 
L 896.358407 173.610241 
L 897.037033 174.707579 
L 897.715658 174.462064 
L 898.394284 173.347027 
L 899.751535 173.311433 
L 900.430161 170.950486 
L 901.108787 172.121382 
L 901.787413 172.756984 
L 902.466038 168.755187 
L 903.144664 170.408038 
L 903.82329 169.204811 
L 904.501915 168.311901 
L 905.180541 165.78175 
L 905.859167 166.442028 
L 906.537793 164.4009 
L 907.216418 164.639453 
L 907.895044 163.324946 
L 908.57367 163.103057 
L 909.252296 160.135924 
L 909.930921 159.924592 
L 910.609547 157.7533 
L 911.288173 154.549626 
L 911.966798 153.176301 
L 912.645424 150.402965 
L 913.32405 145.924644 
L 914.002676 143.833899 
L 914.681301 139.462504 
L 915.359927 134.225148 
L 916.038553 130.872148 
L 916.717178 125.948656 
L 918.753056 104.474919 
L 919.431681 97.381034 
L 922.146184 57.796852 
L 922.82481 49.684393 
L 924.182061 37.894765 
L 924.860687 33.48 
L 925.539313 33.790606 
L 926.217939 37.796096 
L 926.896564 41.039745 
L 927.57519 50.8679 
L 928.253816 58.451924 
L 930.968319 97.153956 
L 931.646944 102.740238 
L 932.32557 113.023187 
L 933.682822 126.601704 
L 934.361447 131.374892 
L 935.040073 134.406749 
L 936.397324 144.32935 
L 937.07595 147.370385 
L 937.754576 148.402969 
L 938.433202 152.78054 
L 939.111827 155.88955 
L 939.790453 156.881021 
L 940.469079 159.879147 
L 941.147704 160.269928 
L 941.82633 160.407491 
L 942.504956 163.282837 
L 943.183582 164.130297 
L 943.862207 165.517649 
L 944.540833 167.950558 
L 945.219459 169.155866 
L 945.898085 169.02662 
L 946.57671 170.195565 
L 947.255336 170.847504 
L 947.933962 170.164211 
L 948.612587 170.912599 
L 949.291213 174.749548 
L 949.969839 172.474728 
L 950.648465 174.680042 
L 951.32709 175.10861 
L 952.005716 174.977517 
L 952.684342 174.583094 
L 953.362967 173.865408 
L 954.041593 175.25506 
L 954.720219 175.27004 
L 955.398845 173.805737 
L 956.07747 177.747368 
L 956.756096 178.036249 
L 957.434722 177.616681 
L 958.113348 175.524359 
L 959.470599 176.549693 
L 960.149225 178.055165 
L 960.82785 176.864556 
L 961.506476 177.977775 
L 962.185102 177.828898 
L 962.863728 175.85334 
L 963.542353 177.419997 
L 964.220979 177.521171 
L 964.899605 176.031013 
L 965.57823 174.939356 
L 966.256856 174.672557 
L 967.614108 170.025858 
L 968.292733 166.978321 
L 968.971359 166.746883 
L 971.685862 154.021909 
L 972.364488 152.80523 
L 973.043113 147.349973 
L 973.721739 147.030632 
L 974.400365 147.08151 
L 975.078991 141.788173 
L 975.757616 143.977507 
L 976.436242 143.192826 
L 977.793493 147.305818 
L 978.472119 147.920246 
L 979.829371 154.332296 
L 980.507996 158.340919 
L 981.186622 160.250565 
L 981.865248 163.229726 
L 982.543874 166.978499 
L 983.222499 166.54405 
L 983.901125 172.113192 
L 984.579751 172.143882 
L 985.258376 174.70231 
L 985.937002 175.173155 
L 986.615628 177.111838 
L 987.294254 178.343396 
L 987.972879 177.277562 
L 988.651505 181.320915 
L 989.330131 178.61102 
L 990.008756 181.390704 
L 990.687382 183.309223 
L 992.044634 181.021972 
L 992.723259 181.658271 
L 993.401885 182.004905 
L 994.080511 183.602712 
L 994.759137 180.798009 
L 995.437762 181.187042 
L 996.116388 184.206692 
L 996.795014 180.613433 
L 997.473639 181.362278 
L 998.152265 182.872729 
L 998.830891 181.750512 
L 999.509517 182.064446 
L 1000.866768 182.27277 
L 1001.545394 181.491276 
L 1002.224019 182.451788 
L 1002.902645 181.063166 
L 1003.581271 181.906149 
L 1004.259897 180.378562 
L 1004.938522 181.877468 
L 1005.617148 181.801463 
L 1006.295774 182.029058 
L 1006.9744 182.625252 
L 1007.653025 181.378382 
L 1008.331651 183.151691 
L 1009.688902 183.154457 
L 1010.367528 184.250003 
L 1011.046154 184.108525 
L 1011.72478 183.261827 
L 1012.403405 182.796199 
L 1013.082031 184.290674 
L 1013.760657 181.664313 
L 1014.439282 183.199095 
L 1015.117908 182.691494 
L 1015.796534 181.536562 
L 1016.47516 182.926897 
L 1017.153785 181.966853 
L 1017.832411 181.58621 
L 1018.511037 183.124297 
L 1019.189663 182.369045 
L 1019.868288 181.228382 
L 1020.546914 184.68 
L 1021.22554 182.546391 
L 1021.904165 183.424247 
L 1022.582791 182.470717 
L 1023.261417 181.927276 
L 1023.940043 183.370483 
L 1024.618668 181.957118 
L 1025.297294 181.365352 
L 1025.97592 182.685678 
L 1026.654545 183.46657 
L 1026.654545 183.46657 
" clip-path="url(#p793e282666)" style="fill: none; stroke: #fde725; stroke-width: 3; stroke-linecap: square"/>
   </g>
   <g id="patch_18">
    <path d="M 813.6 192.24 
L 813.6 25.92 
" style="fill: none; stroke: #000000; stroke-width: 0.8; stroke-linejoin: miter; stroke-linecap: square"/>
   </g>
   <g id="patch_19">
    <path d="M 1036.8 192.24 
L 1036.8 25.92 
" style="fill: none; stroke: #000000; stroke-width: 0.8; stroke-linejoin: miter; stroke-linecap: square"/>
   </g>
   <g id="patch_20">
    <path d="M 813.6 192.24 
L 1036.8 192.24 
" style="fill: none; stroke: #000000; stroke-width: 0.8; stroke-linejoin: miter; stroke-linecap: square"/>
   </g>
   <g id="patch_21">
    <path d="M 813.6 25.92 
L 1036.8 25.92 
" style="fill: none; stroke: #000000; stroke-width: 0.8; stroke-linejoin: miter; stroke-linecap: square"/>
   </g>
  </g>
  <g id="text_1">
   <!-- Classes from SSVAE on Artificial Data -->
   <g transform="translate(389.65 19.516875) scale(0.2 -0.2)">
    <defs>
     <path id="DejaVuSans-43" d="M 4122 4306 
L 4122 3641 
Q 3803 3938 3442 4084 
Q 3081 4231 2675 4231 
Q 1875 4231 1450 3742 
Q 1025 3253 1025 2328 
Q 1025 1406 1450 917 
Q 1875 428 2675 428 
Q 3081 428 3442 575 
Q 3803 722 4122 1019 
L 4122 359 
Q 3791 134 3420 21 
Q 3050 -91 2638 -91 
Q 1578 -91 968 557 
Q 359 1206 359 2328 
Q 359 3453 968 4101 
Q 1578 4750 2638 4750 
Q 3056 4750 3426 4639 
Q 3797 4528 4122 4306 
z
" transform="scale(0.015625)"/>
     <path id="DejaVuSans-6c" d="M 603 4863 
L 1178 4863 
L 1178 0 
L 603 0 
L 603 4863 
z
" transform="scale(0.015625)"/>
     <path id="DejaVuSans-61" d="M 2194 1759 
Q 1497 1759 1228 1600 
Q 959 1441 959 1056 
Q 959 750 1161 570 
Q 1363 391 1709 391 
Q 2188 391 2477 730 
Q 2766 1069 2766 1631 
L 2766 1759 
L 2194 1759 
z
M 3341 1997 
L 3341 0 
L 2766 0 
L 2766 531 
Q 2569 213 2275 61 
Q 1981 -91 1556 -91 
Q 1019 -91 701 211 
Q 384 513 384 1019 
Q 384 1609 779 1909 
Q 1175 2209 1959 2209 
L 2766 2209 
L 2766 2266 
Q 2766 2663 2505 2880 
Q 2244 3097 1772 3097 
Q 1472 3097 1187 3025 
Q 903 2953 641 2809 
L 641 3341 
Q 956 3463 1253 3523 
Q 1550 3584 1831 3584 
Q 2591 3584 2966 3190 
Q 3341 2797 3341 1997 
z
" transform="scale(0.015625)"/>
     <path id="DejaVuSans-73" d="M 2834 3397 
L 2834 2853 
Q 2591 2978 2328 3040 
Q 2066 3103 1784 3103 
Q 1356 3103 1142 2972 
Q 928 2841 928 2578 
Q 928 2378 1081 2264 
Q 1234 2150 1697 2047 
L 1894 2003 
Q 2506 1872 2764 1633 
Q 3022 1394 3022 966 
Q 3022 478 2636 193 
Q 2250 -91 1575 -91 
Q 1294 -91 989 -36 
Q 684 19 347 128 
L 347 722 
Q 666 556 975 473 
Q 1284 391 1588 391 
Q 1994 391 2212 530 
Q 2431 669 2431 922 
Q 2431 1156 2273 1281 
Q 2116 1406 1581 1522 
L 1381 1569 
Q 847 1681 609 1914 
Q 372 2147 372 2553 
Q 372 3047 722 3315 
Q 1072 3584 1716 3584 
Q 2034 3584 2315 3537 
Q 2597 3491 2834 3397 
z
" transform="scale(0.015625)"/>
     <path id="DejaVuSans-65" d="M 3597 1894 
L 3597 1613 
L 953 1613 
Q 991 1019 1311 708 
Q 1631 397 2203 397 
Q 2534 397 2845 478 
Q 3156 559 3463 722 
L 3463 178 
Q 3153 47 2828 -22 
Q 2503 -91 2169 -91 
Q 1331 -91 842 396 
Q 353 884 353 1716 
Q 353 2575 817 3079 
Q 1281 3584 2069 3584 
Q 2775 3584 3186 3129 
Q 3597 2675 3597 1894 
z
M 3022 2063 
Q 3016 2534 2758 2815 
Q 2500 3097 2075 3097 
Q 1594 3097 1305 2825 
Q 1016 2553 972 2059 
L 3022 2063 
z
" transform="scale(0.015625)"/>
     <path id="DejaVuSans-20" transform="scale(0.015625)"/>
     <path id="DejaVuSans-66" d="M 2375 4863 
L 2375 4384 
L 1825 4384 
Q 1516 4384 1395 4259 
Q 1275 4134 1275 3809 
L 1275 3500 
L 2222 3500 
L 2222 3053 
L 1275 3053 
L 1275 0 
L 697 0 
L 697 3053 
L 147 3053 
L 147 3500 
L 697 3500 
L 697 3744 
Q 697 4328 969 4595 
Q 1241 4863 1831 4863 
L 2375 4863 
z
" transform="scale(0.015625)"/>
     <path id="DejaVuSans-72" d="M 2631 2963 
Q 2534 3019 2420 3045 
Q 2306 3072 2169 3072 
Q 1681 3072 1420 2755 
Q 1159 2438 1159 1844 
L 1159 0 
L 581 0 
L 581 3500 
L 1159 3500 
L 1159 2956 
Q 1341 3275 1631 3429 
Q 1922 3584 2338 3584 
Q 2397 3584 2469 3576 
Q 2541 3569 2628 3553 
L 2631 2963 
z
" transform="scale(0.015625)"/>
     <path id="DejaVuSans-6f" d="M 1959 3097 
Q 1497 3097 1228 2736 
Q 959 2375 959 1747 
Q 959 1119 1226 758 
Q 1494 397 1959 397 
Q 2419 397 2687 759 
Q 2956 1122 2956 1747 
Q 2956 2369 2687 2733 
Q 2419 3097 1959 3097 
z
M 1959 3584 
Q 2709 3584 3137 3096 
Q 3566 2609 3566 1747 
Q 3566 888 3137 398 
Q 2709 -91 1959 -91 
Q 1206 -91 779 398 
Q 353 888 353 1747 
Q 353 2609 779 3096 
Q 1206 3584 1959 3584 
z
" transform="scale(0.015625)"/>
     <path id="DejaVuSans-6d" d="M 3328 2828 
Q 3544 3216 3844 3400 
Q 4144 3584 4550 3584 
Q 5097 3584 5394 3201 
Q 5691 2819 5691 2113 
L 5691 0 
L 5113 0 
L 5113 2094 
Q 5113 2597 4934 2840 
Q 4756 3084 4391 3084 
Q 3944 3084 3684 2787 
Q 3425 2491 3425 1978 
L 3425 0 
L 2847 0 
L 2847 2094 
Q 2847 2600 2669 2842 
Q 2491 3084 2119 3084 
Q 1678 3084 1418 2786 
Q 1159 2488 1159 1978 
L 1159 0 
L 581 0 
L 581 3500 
L 1159 3500 
L 1159 2956 
Q 1356 3278 1631 3431 
Q 1906 3584 2284 3584 
Q 2666 3584 2933 3390 
Q 3200 3197 3328 2828 
z
" transform="scale(0.015625)"/>
     <path id="DejaVuSans-53" d="M 3425 4513 
L 3425 3897 
Q 3066 4069 2747 4153 
Q 2428 4238 2131 4238 
Q 1616 4238 1336 4038 
Q 1056 3838 1056 3469 
Q 1056 3159 1242 3001 
Q 1428 2844 1947 2747 
L 2328 2669 
Q 3034 2534 3370 2195 
Q 3706 1856 3706 1288 
Q 3706 609 3251 259 
Q 2797 -91 1919 -91 
Q 1588 -91 1214 -16 
Q 841 59 441 206 
L 441 856 
Q 825 641 1194 531 
Q 1563 422 1919 422 
Q 2459 422 2753 634 
Q 3047 847 3047 1241 
Q 3047 1584 2836 1778 
Q 2625 1972 2144 2069 
L 1759 2144 
Q 1053 2284 737 2584 
Q 422 2884 422 3419 
Q 422 4038 858 4394 
Q 1294 4750 2059 4750 
Q 2388 4750 2728 4690 
Q 3069 4631 3425 4513 
z
" transform="scale(0.015625)"/>
     <path id="DejaVuSans-56" d="M 1831 0 
L 50 4666 
L 709 4666 
L 2188 738 
L 3669 4666 
L 4325 4666 
L 2547 0 
L 1831 0 
z
" transform="scale(0.015625)"/>
     <path id="DejaVuSans-41" d="M 2188 4044 
L 1331 1722 
L 3047 1722 
L 2188 4044 
z
M 1831 4666 
L 2547 4666 
L 4325 0 
L 3669 0 
L 3244 1197 
L 1141 1197 
L 716 0 
L 50 0 
L 1831 4666 
z
" transform="scale(0.015625)"/>
     <path id="DejaVuSans-45" d="M 628 4666 
L 3578 4666 
L 3578 4134 
L 1259 4134 
L 1259 2753 
L 3481 2753 
L 3481 2222 
L 1259 2222 
L 1259 531 
L 3634 531 
L 3634 0 
L 628 0 
L 628 4666 
z
" transform="scale(0.015625)"/>
     <path id="DejaVuSans-6e" d="M 3513 2113 
L 3513 0 
L 2938 0 
L 2938 2094 
Q 2938 2591 2744 2837 
Q 2550 3084 2163 3084 
Q 1697 3084 1428 2787 
Q 1159 2491 1159 1978 
L 1159 0 
L 581 0 
L 581 3500 
L 1159 3500 
L 1159 2956 
Q 1366 3272 1645 3428 
Q 1925 3584 2291 3584 
Q 2894 3584 3203 3211 
Q 3513 2838 3513 2113 
z
" transform="scale(0.015625)"/>
     <path id="DejaVuSans-74" d="M 1172 4494 
L 1172 3500 
L 2356 3500 
L 2356 3053 
L 1172 3053 
L 1172 1153 
Q 1172 725 1289 603 
Q 1406 481 1766 481 
L 2356 481 
L 2356 0 
L 1766 0 
Q 1100 0 847 248 
Q 594 497 594 1153 
L 594 3053 
L 172 3053 
L 172 3500 
L 594 3500 
L 594 4494 
L 1172 4494 
z
" transform="scale(0.015625)"/>
     <path id="DejaVuSans-69" d="M 603 3500 
L 1178 3500 
L 1178 0 
L 603 0 
L 603 3500 
z
M 603 4863 
L 1178 4863 
L 1178 4134 
L 603 4134 
L 603 4863 
z
" transform="scale(0.015625)"/>
     <path id="DejaVuSans-63" d="M 3122 3366 
L 3122 2828 
Q 2878 2963 2633 3030 
Q 2388 3097 2138 3097 
Q 1578 3097 1268 2742 
Q 959 2388 959 1747 
Q 959 1106 1268 751 
Q 1578 397 2138 397 
Q 2388 397 2633 464 
Q 2878 531 3122 666 
L 3122 134 
Q 2881 22 2623 -34 
Q 2366 -91 2075 -91 
Q 1284 -91 818 406 
Q 353 903 353 1747 
Q 353 2603 823 3093 
Q 1294 3584 2113 3584 
Q 2378 3584 2631 3529 
Q 2884 3475 3122 3366 
z
" transform="scale(0.015625)"/>
     <path id="DejaVuSans-44" d="M 1259 4147 
L 1259 519 
L 2022 519 
Q 2988 519 3436 956 
Q 3884 1394 3884 2338 
Q 3884 3275 3436 3711 
Q 2988 4147 2022 4147 
L 1259 4147 
z
M 628 4666 
L 1925 4666 
Q 3281 4666 3915 4102 
Q 4550 3538 4550 2338 
Q 4550 1131 3912 565 
Q 3275 0 1925 0 
L 628 0 
L 628 4666 
z
" transform="scale(0.015625)"/>
    </defs>
    <use xlink:href="#DejaVuSans-43"/>
    <use xlink:href="#DejaVuSans-6c" x="69.824219"/>
    <use xlink:href="#DejaVuSans-61" x="97.607422"/>
    <use xlink:href="#DejaVuSans-73" x="158.886719"/>
    <use xlink:href="#DejaVuSans-73" x="210.986328"/>
    <use xlink:href="#DejaVuSans-65" x="263.085938"/>
    <use xlink:href="#DejaVuSans-73" x="324.609375"/>
    <use xlink:href="#DejaVuSans-20" x="376.708984"/>
    <use xlink:href="#DejaVuSans-66" x="408.496094"/>
    <use xlink:href="#DejaVuSans-72" x="443.701172"/>
    <use xlink:href="#DejaVuSans-6f" x="482.564453"/>
    <use xlink:href="#DejaVuSans-6d" x="543.746094"/>
    <use xlink:href="#DejaVuSans-20" x="641.158203"/>
    <use xlink:href="#DejaVuSans-53" x="672.945312"/>
    <use xlink:href="#DejaVuSans-53" x="736.421875"/>
    <use xlink:href="#DejaVuSans-56" x="799.898438"/>
    <use xlink:href="#DejaVuSans-41" x="861.931641"/>
    <use xlink:href="#DejaVuSans-45" x="930.339844"/>
    <use xlink:href="#DejaVuSans-20" x="993.523438"/>
    <use xlink:href="#DejaVuSans-6f" x="1025.310547"/>
    <use xlink:href="#DejaVuSans-6e" x="1086.492188"/>
    <use xlink:href="#DejaVuSans-20" x="1149.871094"/>
    <use xlink:href="#DejaVuSans-41" x="1181.658203"/>
    <use xlink:href="#DejaVuSans-72" x="1250.066406"/>
    <use xlink:href="#DejaVuSans-74" x="1291.179688"/>
    <use xlink:href="#DejaVuSans-69" x="1330.388672"/>
    <use xlink:href="#DejaVuSans-66" x="1358.171875"/>
    <use xlink:href="#DejaVuSans-69" x="1393.376953"/>
    <use xlink:href="#DejaVuSans-63" x="1421.160156"/>
    <use xlink:href="#DejaVuSans-69" x="1476.140625"/>
    <use xlink:href="#DejaVuSans-61" x="1503.923828"/>
    <use xlink:href="#DejaVuSans-6c" x="1565.203125"/>
    <use xlink:href="#DejaVuSans-20" x="1592.986328"/>
    <use xlink:href="#DejaVuSans-44" x="1624.773438"/>
    <use xlink:href="#DejaVuSans-61" x="1701.775391"/>
    <use xlink:href="#DejaVuSans-74" x="1763.054688"/>
    <use xlink:href="#DejaVuSans-61" x="1802.263672"/>
   </g>
  </g>
 </g>
 <defs>
  <clipPath id="p4df02b2572">
   <rect x="144" y="25.92" width="223.2" height="166.32"/>
  </clipPath>
  <clipPath id="p20d70a4b94">
   <rect x="367.2" y="25.92" width="223.2" height="166.32"/>
  </clipPath>
  <clipPath id="p2700912aef">
   <rect x="590.4" y="25.92" width="223.2" height="166.32"/>
  </clipPath>
  <clipPath id="p793e282666">
   <rect x="813.6" y="25.92" width="223.2" height="166.32"/>
  </clipPath>
 </defs>
</svg>
