<?xml version="1.0" encoding="utf-8" standalone="no"?>
<!DOCTYPE svg PUBLIC "-//W3C//DTD SVG 1.1//EN"
  "http://www.w3.org/Graphics/SVG/1.1/DTD/svg11.dtd">
<svg xmlns:xlink="http://www.w3.org/1999/xlink" width="288pt" height="216pt" viewBox="0 0 288 216" xmlns="http://www.w3.org/2000/svg" version="1.1">
 <metadata>
  <rdf:RDF xmlns:dc="http://purl.org/dc/elements/1.1/" xmlns:cc="http://creativecommons.org/ns#" xmlns:rdf="http://www.w3.org/1999/02/22-rdf-syntax-ns#">
   <cc:Work>
    <dc:type rdf:resource="http://purl.org/dc/dcmitype/StillImage"/>
    <dc:date>2024-07-23T16:39:37.570142</dc:date>
    <dc:format>image/svg+xml</dc:format>
    <dc:creator>
     <cc:Agent>
      <dc:title>Matplotlib v3.8.4, https://matplotlib.org/</dc:title>
     </cc:Agent>
    </dc:creator>
   </cc:Work>
  </rdf:RDF>
 </metadata>
 <defs>
  <style type="text/css">*{stroke-linejoin: round; stroke-linecap: butt}</style>
 </defs>
 <g id="figure_1">
  <g id="patch_1">
   <path d="M 0 216 
L 288 216 
L 288 0 
L 0 0 
z
" style="fill: #ffffff"/>
  </g>
  <g id="axes_1">
   <g id="patch_2">
    <path d="M 36 192.24 
L 259.2 192.24 
L 259.2 25.92 
L 36 25.92 
z
" style="fill: #ffffff"/>
   </g>
   <g id="matplotlib.axis_1">
    <g id="xtick_1">
     <g id="line2d_1">
      <path d="M 46.145454 192.24 
L 46.145454 25.92 
" clip-path="url(#p517c0d23ed)" style="fill: none; stroke: #b0b0b0; stroke-width: 0.8; stroke-linecap: square"/>
     </g>
     <g id="line2d_2">
      <defs>
       <path id="mb7bcf90b14" d="M 0 0 
L 0 6 
" style="stroke: #000000; stroke-width: 2"/>
      </defs>
      <g>
       <use xlink:href="#mb7bcf90b14" x="46.145454" y="192.24" style="stroke: #000000; stroke-width: 2"/>
      </g>
     </g>
     <g id="text_1">
      <!-- 0 -->
      <g transform="translate(44.05811 206.299062) scale(0.06 -0.06)">
       <defs>
        <path id="DejaVuSans-Bold-30" d="M 2944 2338 
Q 2944 3213 2780 3570 
Q 2616 3928 2228 3928 
Q 1841 3928 1675 3570 
Q 1509 3213 1509 2338 
Q 1509 1453 1675 1090 
Q 1841 728 2228 728 
Q 2613 728 2778 1090 
Q 2944 1453 2944 2338 
z
M 4147 2328 
Q 4147 1169 3647 539 
Q 3147 -91 2228 -91 
Q 1306 -91 806 539 
Q 306 1169 306 2328 
Q 306 3491 806 4120 
Q 1306 4750 2228 4750 
Q 3147 4750 3647 4120 
Q 4147 3491 4147 2328 
z
" transform="scale(0.015625)"/>
       </defs>
       <use xlink:href="#DejaVuSans-Bold-30"/>
      </g>
     </g>
    </g>
    <g id="xtick_2">
     <g id="line2d_3">
      <path d="M 113.781818 192.24 
L 113.781818 25.92 
" clip-path="url(#p517c0d23ed)" style="fill: none; stroke: #b0b0b0; stroke-width: 0.8; stroke-linecap: square"/>
     </g>
     <g id="line2d_4">
      <g>
       <use xlink:href="#mb7bcf90b14" x="113.781818" y="192.24" style="stroke: #000000; stroke-width: 2"/>
      </g>
     </g>
     <g id="text_2">
      <!-- 1 -->
      <g transform="translate(111.694474 206.299062) scale(0.06 -0.06)">
       <defs>
        <path id="DejaVuSans-Bold-31" d="M 750 831 
L 1813 831 
L 1813 3847 
L 722 3622 
L 722 4441 
L 1806 4666 
L 2950 4666 
L 2950 831 
L 4013 831 
L 4013 0 
L 750 0 
L 750 831 
z
" transform="scale(0.015625)"/>
       </defs>
       <use xlink:href="#DejaVuSans-Bold-31"/>
      </g>
     </g>
    </g>
    <g id="xtick_3">
     <g id="line2d_5">
      <path d="M 181.418182 192.24 
L 181.418182 25.92 
" clip-path="url(#p517c0d23ed)" style="fill: none; stroke: #b0b0b0; stroke-width: 0.8; stroke-linecap: square"/>
     </g>
     <g id="line2d_6">
      <g>
       <use xlink:href="#mb7bcf90b14" x="181.418182" y="192.24" style="stroke: #000000; stroke-width: 2"/>
      </g>
     </g>
     <g id="text_3">
      <!-- 2 -->
      <g transform="translate(179.330838 206.299062) scale(0.06 -0.06)">
       <defs>
        <path id="DejaVuSans-Bold-32" d="M 1844 884 
L 3897 884 
L 3897 0 
L 506 0 
L 506 884 
L 2209 2388 
Q 2438 2594 2547 2791 
Q 2656 2988 2656 3200 
Q 2656 3528 2436 3728 
Q 2216 3928 1850 3928 
Q 1569 3928 1234 3808 
Q 900 3688 519 3450 
L 519 4475 
Q 925 4609 1322 4679 
Q 1719 4750 2100 4750 
Q 2938 4750 3402 4381 
Q 3866 4013 3866 3353 
Q 3866 2972 3669 2642 
Q 3472 2313 2841 1759 
L 1844 884 
z
" transform="scale(0.015625)"/>
       </defs>
       <use xlink:href="#DejaVuSans-Bold-32"/>
      </g>
     </g>
    </g>
    <g id="xtick_4">
     <g id="line2d_7">
      <path d="M 249.054545 192.24 
L 249.054545 25.92 
" clip-path="url(#p517c0d23ed)" style="fill: none; stroke: #b0b0b0; stroke-width: 0.8; stroke-linecap: square"/>
     </g>
     <g id="line2d_8">
      <g>
       <use xlink:href="#mb7bcf90b14" x="249.054545" y="192.24" style="stroke: #000000; stroke-width: 2"/>
      </g>
     </g>
     <g id="text_4">
      <!-- 3 -->
      <g transform="translate(246.967202 206.299062) scale(0.06 -0.06)">
       <defs>
        <path id="DejaVuSans-Bold-33" d="M 2981 2516 
Q 3453 2394 3698 2092 
Q 3944 1791 3944 1325 
Q 3944 631 3412 270 
Q 2881 -91 1863 -91 
Q 1503 -91 1142 -33 
Q 781 25 428 141 
L 428 1069 
Q 766 900 1098 814 
Q 1431 728 1753 728 
Q 2231 728 2486 893 
Q 2741 1059 2741 1369 
Q 2741 1688 2480 1852 
Q 2219 2016 1709 2016 
L 1228 2016 
L 1228 2791 
L 1734 2791 
Q 2188 2791 2409 2933 
Q 2631 3075 2631 3366 
Q 2631 3634 2415 3781 
Q 2200 3928 1806 3928 
Q 1516 3928 1219 3862 
Q 922 3797 628 3669 
L 628 4550 
Q 984 4650 1334 4700 
Q 1684 4750 2022 4750 
Q 2931 4750 3382 4451 
Q 3834 4153 3834 3553 
Q 3834 3144 3618 2883 
Q 3403 2622 2981 2516 
z
" transform="scale(0.015625)"/>
       </defs>
       <use xlink:href="#DejaVuSans-Bold-33"/>
      </g>
     </g>
    </g>
    <g id="text_5">
     <!-- Sparseness Level -->
     <g transform="translate(98.628125 219.145312) scale(0.1 -0.1)">
      <defs>
       <path id="DejaVuSans-Bold-53" d="M 3834 4519 
L 3834 3531 
Q 3450 3703 3084 3790 
Q 2719 3878 2394 3878 
Q 1963 3878 1756 3759 
Q 1550 3641 1550 3391 
Q 1550 3203 1689 3098 
Q 1828 2994 2194 2919 
L 2706 2816 
Q 3484 2659 3812 2340 
Q 4141 2022 4141 1434 
Q 4141 663 3683 286 
Q 3225 -91 2284 -91 
Q 1841 -91 1394 -6 
Q 947 78 500 244 
L 500 1259 
Q 947 1022 1364 901 
Q 1781 781 2169 781 
Q 2563 781 2772 912 
Q 2981 1044 2981 1288 
Q 2981 1506 2839 1625 
Q 2697 1744 2272 1838 
L 1806 1941 
Q 1106 2091 782 2419 
Q 459 2747 459 3303 
Q 459 4000 909 4375 
Q 1359 4750 2203 4750 
Q 2588 4750 2994 4692 
Q 3400 4634 3834 4519 
z
" transform="scale(0.015625)"/>
       <path id="DejaVuSans-Bold-70" d="M 1656 506 
L 1656 -1331 
L 538 -1331 
L 538 3500 
L 1656 3500 
L 1656 2988 
Q 1888 3294 2169 3439 
Q 2450 3584 2816 3584 
Q 3463 3584 3878 3070 
Q 4294 2556 4294 1747 
Q 4294 938 3878 423 
Q 3463 -91 2816 -91 
Q 2450 -91 2169 54 
Q 1888 200 1656 506 
z
M 2400 2772 
Q 2041 2772 1848 2508 
Q 1656 2244 1656 1747 
Q 1656 1250 1848 986 
Q 2041 722 2400 722 
Q 2759 722 2948 984 
Q 3138 1247 3138 1747 
Q 3138 2247 2948 2509 
Q 2759 2772 2400 2772 
z
" transform="scale(0.015625)"/>
       <path id="DejaVuSans-Bold-61" d="M 2106 1575 
Q 1756 1575 1579 1456 
Q 1403 1338 1403 1106 
Q 1403 894 1545 773 
Q 1688 653 1941 653 
Q 2256 653 2472 879 
Q 2688 1106 2688 1447 
L 2688 1575 
L 2106 1575 
z
M 3816 1997 
L 3816 0 
L 2688 0 
L 2688 519 
Q 2463 200 2181 54 
Q 1900 -91 1497 -91 
Q 953 -91 614 226 
Q 275 544 275 1050 
Q 275 1666 698 1953 
Q 1122 2241 2028 2241 
L 2688 2241 
L 2688 2328 
Q 2688 2594 2478 2717 
Q 2269 2841 1825 2841 
Q 1466 2841 1156 2769 
Q 847 2697 581 2553 
L 581 3406 
Q 941 3494 1303 3539 
Q 1666 3584 2028 3584 
Q 2975 3584 3395 3211 
Q 3816 2838 3816 1997 
z
" transform="scale(0.015625)"/>
       <path id="DejaVuSans-Bold-72" d="M 3138 2547 
Q 2991 2616 2845 2648 
Q 2700 2681 2553 2681 
Q 2122 2681 1889 2404 
Q 1656 2128 1656 1613 
L 1656 0 
L 538 0 
L 538 3500 
L 1656 3500 
L 1656 2925 
Q 1872 3269 2151 3426 
Q 2431 3584 2822 3584 
Q 2878 3584 2943 3579 
Q 3009 3575 3134 3559 
L 3138 2547 
z
" transform="scale(0.015625)"/>
       <path id="DejaVuSans-Bold-73" d="M 3272 3391 
L 3272 2541 
Q 2913 2691 2578 2766 
Q 2244 2841 1947 2841 
Q 1628 2841 1473 2761 
Q 1319 2681 1319 2516 
Q 1319 2381 1436 2309 
Q 1553 2238 1856 2203 
L 2053 2175 
Q 2913 2066 3209 1816 
Q 3506 1566 3506 1031 
Q 3506 472 3093 190 
Q 2681 -91 1863 -91 
Q 1516 -91 1145 -36 
Q 775 19 384 128 
L 384 978 
Q 719 816 1070 734 
Q 1422 653 1784 653 
Q 2113 653 2278 743 
Q 2444 834 2444 1013 
Q 2444 1163 2330 1236 
Q 2216 1309 1875 1350 
L 1678 1375 
Q 931 1469 631 1722 
Q 331 1975 331 2491 
Q 331 3047 712 3315 
Q 1094 3584 1881 3584 
Q 2191 3584 2531 3537 
Q 2872 3491 3272 3391 
z
" transform="scale(0.015625)"/>
       <path id="DejaVuSans-Bold-65" d="M 4031 1759 
L 4031 1441 
L 1416 1441 
Q 1456 1047 1700 850 
Q 1944 653 2381 653 
Q 2734 653 3104 758 
Q 3475 863 3866 1075 
L 3866 213 
Q 3469 63 3072 -14 
Q 2675 -91 2278 -91 
Q 1328 -91 801 392 
Q 275 875 275 1747 
Q 275 2603 792 3093 
Q 1309 3584 2216 3584 
Q 3041 3584 3536 3087 
Q 4031 2591 4031 1759 
z
M 2881 2131 
Q 2881 2450 2695 2645 
Q 2509 2841 2209 2841 
Q 1884 2841 1681 2658 
Q 1478 2475 1428 2131 
L 2881 2131 
z
" transform="scale(0.015625)"/>
       <path id="DejaVuSans-Bold-6e" d="M 4056 2131 
L 4056 0 
L 2931 0 
L 2931 347 
L 2931 1631 
Q 2931 2084 2911 2256 
Q 2891 2428 2841 2509 
Q 2775 2619 2662 2680 
Q 2550 2741 2406 2741 
Q 2056 2741 1856 2470 
Q 1656 2200 1656 1722 
L 1656 0 
L 538 0 
L 538 3500 
L 1656 3500 
L 1656 2988 
Q 1909 3294 2193 3439 
Q 2478 3584 2822 3584 
Q 3428 3584 3742 3212 
Q 4056 2841 4056 2131 
z
" transform="scale(0.015625)"/>
       <path id="DejaVuSans-Bold-20" transform="scale(0.015625)"/>
       <path id="DejaVuSans-Bold-4c" d="M 588 4666 
L 1791 4666 
L 1791 909 
L 3903 909 
L 3903 0 
L 588 0 
L 588 4666 
z
" transform="scale(0.015625)"/>
       <path id="DejaVuSans-Bold-76" d="M 97 3500 
L 1216 3500 
L 2088 1081 
L 2956 3500 
L 4078 3500 
L 2700 0 
L 1472 0 
L 97 3500 
z
" transform="scale(0.015625)"/>
       <path id="DejaVuSans-Bold-6c" d="M 538 4863 
L 1656 4863 
L 1656 0 
L 538 0 
L 538 4863 
z
" transform="scale(0.015625)"/>
      </defs>
      <use xlink:href="#DejaVuSans-Bold-53"/>
      <use xlink:href="#DejaVuSans-Bold-70" x="72.021484"/>
      <use xlink:href="#DejaVuSans-Bold-61" x="143.603516"/>
      <use xlink:href="#DejaVuSans-Bold-72" x="211.083984"/>
      <use xlink:href="#DejaVuSans-Bold-73" x="260.400391"/>
      <use xlink:href="#DejaVuSans-Bold-65" x="319.921875"/>
      <use xlink:href="#DejaVuSans-Bold-6e" x="387.744141"/>
      <use xlink:href="#DejaVuSans-Bold-65" x="458.935547"/>
      <use xlink:href="#DejaVuSans-Bold-73" x="526.757812"/>
      <use xlink:href="#DejaVuSans-Bold-73" x="586.279297"/>
      <use xlink:href="#DejaVuSans-Bold-20" x="645.800781"/>
      <use xlink:href="#DejaVuSans-Bold-4c" x="680.615234"/>
      <use xlink:href="#DejaVuSans-Bold-65" x="744.335938"/>
      <use xlink:href="#DejaVuSans-Bold-76" x="812.158203"/>
      <use xlink:href="#DejaVuSans-Bold-65" x="877.34375"/>
      <use xlink:href="#DejaVuSans-Bold-6c" x="945.166016"/>
     </g>
    </g>
   </g>
   <g id="matplotlib.axis_2">
    <g id="ytick_1">
     <g id="line2d_9">
      <path d="M 36 183 
L 259.2 183 
" clip-path="url(#p517c0d23ed)" style="fill: none; stroke: #b0b0b0; stroke-width: 0.8; stroke-linecap: square"/>
     </g>
     <g id="line2d_10">
      <defs>
       <path id="m974793ca62" d="M 0 0 
L -6 0 
" style="stroke: #000000; stroke-width: 2"/>
      </defs>
      <g>
       <use xlink:href="#m974793ca62" x="36" y="183" style="stroke: #000000; stroke-width: 2"/>
      </g>
     </g>
     <g id="text_6">
      <!-- 0.984 -->
      <g transform="translate(7.522188 185.279531) scale(0.06 -0.06)">
       <defs>
        <path id="DejaVuSans-Bold-2e" d="M 653 1209 
L 1778 1209 
L 1778 0 
L 653 0 
L 653 1209 
z
" transform="scale(0.015625)"/>
        <path id="DejaVuSans-Bold-39" d="M 641 103 
L 641 966 
Q 928 831 1190 764 
Q 1453 697 1709 697 
Q 2247 697 2547 995 
Q 2847 1294 2900 1881 
Q 2688 1725 2447 1647 
Q 2206 1569 1925 1569 
Q 1209 1569 770 1986 
Q 331 2403 331 3084 
Q 331 3838 820 4291 
Q 1309 4744 2131 4744 
Q 3044 4744 3544 4128 
Q 4044 3513 4044 2388 
Q 4044 1231 3459 570 
Q 2875 -91 1856 -91 
Q 1528 -91 1228 -42 
Q 928 6 641 103 
z
M 2125 2350 
Q 2441 2350 2600 2554 
Q 2759 2759 2759 3169 
Q 2759 3575 2600 3781 
Q 2441 3988 2125 3988 
Q 1809 3988 1650 3781 
Q 1491 3575 1491 3169 
Q 1491 2759 1650 2554 
Q 1809 2350 2125 2350 
z
" transform="scale(0.015625)"/>
        <path id="DejaVuSans-Bold-38" d="M 2228 2088 
Q 1891 2088 1709 1903 
Q 1528 1719 1528 1375 
Q 1528 1031 1709 848 
Q 1891 666 2228 666 
Q 2563 666 2741 848 
Q 2919 1031 2919 1375 
Q 2919 1722 2741 1905 
Q 2563 2088 2228 2088 
z
M 1350 2484 
Q 925 2613 709 2878 
Q 494 3144 494 3541 
Q 494 4131 934 4440 
Q 1375 4750 2228 4750 
Q 3075 4750 3515 4442 
Q 3956 4134 3956 3541 
Q 3956 3144 3739 2878 
Q 3522 2613 3097 2484 
Q 3572 2353 3814 2058 
Q 4056 1763 4056 1313 
Q 4056 619 3595 264 
Q 3134 -91 2228 -91 
Q 1319 -91 855 264 
Q 391 619 391 1313 
Q 391 1763 633 2058 
Q 875 2353 1350 2484 
z
M 1631 3419 
Q 1631 3141 1786 2991 
Q 1941 2841 2228 2841 
Q 2509 2841 2662 2991 
Q 2816 3141 2816 3419 
Q 2816 3697 2662 3845 
Q 2509 3994 2228 3994 
Q 1941 3994 1786 3844 
Q 1631 3694 1631 3419 
z
" transform="scale(0.015625)"/>
        <path id="DejaVuSans-Bold-34" d="M 2356 3675 
L 1038 1722 
L 2356 1722 
L 2356 3675 
z
M 2156 4666 
L 3494 4666 
L 3494 1722 
L 4159 1722 
L 4159 850 
L 3494 850 
L 3494 0 
L 2356 0 
L 2356 850 
L 288 850 
L 288 1881 
L 2156 4666 
z
" transform="scale(0.015625)"/>
       </defs>
       <use xlink:href="#DejaVuSans-Bold-30"/>
       <use xlink:href="#DejaVuSans-Bold-2e" x="69.580078"/>
       <use xlink:href="#DejaVuSans-Bold-39" x="107.568359"/>
       <use xlink:href="#DejaVuSans-Bold-38" x="177.148438"/>
       <use xlink:href="#DejaVuSans-Bold-34" x="246.728516"/>
      </g>
     </g>
    </g>
    <g id="ytick_2">
     <g id="line2d_11">
      <path d="M 36 164.52 
L 259.2 164.52 
" clip-path="url(#p517c0d23ed)" style="fill: none; stroke: #b0b0b0; stroke-width: 0.8; stroke-linecap: square"/>
     </g>
     <g id="line2d_12">
      <g>
       <use xlink:href="#m974793ca62" x="36" y="164.52" style="stroke: #000000; stroke-width: 2"/>
      </g>
     </g>
     <g id="text_7">
      <!-- 0.986 -->
      <g transform="translate(7.522188 166.799531) scale(0.06 -0.06)">
       <defs>
        <path id="DejaVuSans-Bold-36" d="M 2316 2303 
Q 2000 2303 1842 2098 
Q 1684 1894 1684 1484 
Q 1684 1075 1842 870 
Q 2000 666 2316 666 
Q 2634 666 2792 870 
Q 2950 1075 2950 1484 
Q 2950 1894 2792 2098 
Q 2634 2303 2316 2303 
z
M 3803 4544 
L 3803 3681 
Q 3506 3822 3243 3889 
Q 2981 3956 2731 3956 
Q 2194 3956 1894 3657 
Q 1594 3359 1544 2772 
Q 1750 2925 1990 3001 
Q 2231 3078 2516 3078 
Q 3231 3078 3670 2659 
Q 4109 2241 4109 1563 
Q 4109 813 3618 361 
Q 3128 -91 2303 -91 
Q 1394 -91 895 523 
Q 397 1138 397 2266 
Q 397 3422 980 4083 
Q 1563 4744 2578 4744 
Q 2900 4744 3203 4694 
Q 3506 4644 3803 4544 
z
" transform="scale(0.015625)"/>
       </defs>
       <use xlink:href="#DejaVuSans-Bold-30"/>
       <use xlink:href="#DejaVuSans-Bold-2e" x="69.580078"/>
       <use xlink:href="#DejaVuSans-Bold-39" x="107.568359"/>
       <use xlink:href="#DejaVuSans-Bold-38" x="177.148438"/>
       <use xlink:href="#DejaVuSans-Bold-36" x="246.728516"/>
      </g>
     </g>
    </g>
    <g id="ytick_3">
     <g id="line2d_13">
      <path d="M 36 146.04 
L 259.2 146.04 
" clip-path="url(#p517c0d23ed)" style="fill: none; stroke: #b0b0b0; stroke-width: 0.8; stroke-linecap: square"/>
     </g>
     <g id="line2d_14">
      <g>
       <use xlink:href="#m974793ca62" x="36" y="146.04" style="stroke: #000000; stroke-width: 2"/>
      </g>
     </g>
     <g id="text_8">
      <!-- 0.988 -->
      <g transform="translate(7.522188 148.319531) scale(0.06 -0.06)">
       <use xlink:href="#DejaVuSans-Bold-30"/>
       <use xlink:href="#DejaVuSans-Bold-2e" x="69.580078"/>
       <use xlink:href="#DejaVuSans-Bold-39" x="107.568359"/>
       <use xlink:href="#DejaVuSans-Bold-38" x="177.148438"/>
       <use xlink:href="#DejaVuSans-Bold-38" x="246.728516"/>
      </g>
     </g>
    </g>
    <g id="ytick_4">
     <g id="line2d_15">
      <path d="M 36 127.56 
L 259.2 127.56 
" clip-path="url(#p517c0d23ed)" style="fill: none; stroke: #b0b0b0; stroke-width: 0.8; stroke-linecap: square"/>
     </g>
     <g id="line2d_16">
      <g>
       <use xlink:href="#m974793ca62" x="36" y="127.56" style="stroke: #000000; stroke-width: 2"/>
      </g>
     </g>
     <g id="text_9">
      <!-- 0.990 -->
      <g transform="translate(7.522188 129.839531) scale(0.06 -0.06)">
       <use xlink:href="#DejaVuSans-Bold-30"/>
       <use xlink:href="#DejaVuSans-Bold-2e" x="69.580078"/>
       <use xlink:href="#DejaVuSans-Bold-39" x="107.568359"/>
       <use xlink:href="#DejaVuSans-Bold-39" x="177.148438"/>
       <use xlink:href="#DejaVuSans-Bold-30" x="246.728516"/>
      </g>
     </g>
    </g>
    <g id="ytick_5">
     <g id="line2d_17">
      <path d="M 36 109.08 
L 259.2 109.08 
" clip-path="url(#p517c0d23ed)" style="fill: none; stroke: #b0b0b0; stroke-width: 0.8; stroke-linecap: square"/>
     </g>
     <g id="line2d_18">
      <g>
       <use xlink:href="#m974793ca62" x="36" y="109.08" style="stroke: #000000; stroke-width: 2"/>
      </g>
     </g>
     <g id="text_10">
      <!-- 0.992 -->
      <g transform="translate(7.522188 111.359531) scale(0.06 -0.06)">
       <use xlink:href="#DejaVuSans-Bold-30"/>
       <use xlink:href="#DejaVuSans-Bold-2e" x="69.580078"/>
       <use xlink:href="#DejaVuSans-Bold-39" x="107.568359"/>
       <use xlink:href="#DejaVuSans-Bold-39" x="177.148438"/>
       <use xlink:href="#DejaVuSans-Bold-32" x="246.728516"/>
      </g>
     </g>
    </g>
    <g id="ytick_6">
     <g id="line2d_19">
      <path d="M 36 90.6 
L 259.2 90.6 
" clip-path="url(#p517c0d23ed)" style="fill: none; stroke: #b0b0b0; stroke-width: 0.8; stroke-linecap: square"/>
     </g>
     <g id="line2d_20">
      <g>
       <use xlink:href="#m974793ca62" x="36" y="90.6" style="stroke: #000000; stroke-width: 2"/>
      </g>
     </g>
     <g id="text_11">
      <!-- 0.994 -->
      <g transform="translate(7.522188 92.879531) scale(0.06 -0.06)">
       <use xlink:href="#DejaVuSans-Bold-30"/>
       <use xlink:href="#DejaVuSans-Bold-2e" x="69.580078"/>
       <use xlink:href="#DejaVuSans-Bold-39" x="107.568359"/>
       <use xlink:href="#DejaVuSans-Bold-39" x="177.148438"/>
       <use xlink:href="#DejaVuSans-Bold-34" x="246.728516"/>
      </g>
     </g>
    </g>
    <g id="ytick_7">
     <g id="line2d_21">
      <path d="M 36 72.12 
L 259.2 72.12 
" clip-path="url(#p517c0d23ed)" style="fill: none; stroke: #b0b0b0; stroke-width: 0.8; stroke-linecap: square"/>
     </g>
     <g id="line2d_22">
      <g>
       <use xlink:href="#m974793ca62" x="36" y="72.12" style="stroke: #000000; stroke-width: 2"/>
      </g>
     </g>
     <g id="text_12">
      <!-- 0.996 -->
      <g transform="translate(7.522188 74.399531) scale(0.06 -0.06)">
       <use xlink:href="#DejaVuSans-Bold-30"/>
       <use xlink:href="#DejaVuSans-Bold-2e" x="69.580078"/>
       <use xlink:href="#DejaVuSans-Bold-39" x="107.568359"/>
       <use xlink:href="#DejaVuSans-Bold-39" x="177.148438"/>
       <use xlink:href="#DejaVuSans-Bold-36" x="246.728516"/>
      </g>
     </g>
    </g>
    <g id="ytick_8">
     <g id="line2d_23">
      <path d="M 36 53.64 
L 259.2 53.64 
" clip-path="url(#p517c0d23ed)" style="fill: none; stroke: #b0b0b0; stroke-width: 0.8; stroke-linecap: square"/>
     </g>
     <g id="line2d_24">
      <g>
       <use xlink:href="#m974793ca62" x="36" y="53.64" style="stroke: #000000; stroke-width: 2"/>
      </g>
     </g>
     <g id="text_13">
      <!-- 0.998 -->
      <g transform="translate(7.522188 55.919531) scale(0.06 -0.06)">
       <use xlink:href="#DejaVuSans-Bold-30"/>
       <use xlink:href="#DejaVuSans-Bold-2e" x="69.580078"/>
       <use xlink:href="#DejaVuSans-Bold-39" x="107.568359"/>
       <use xlink:href="#DejaVuSans-Bold-39" x="177.148438"/>
       <use xlink:href="#DejaVuSans-Bold-38" x="246.728516"/>
      </g>
     </g>
    </g>
    <g id="ytick_9">
     <g id="line2d_25">
      <path d="M 36 35.16 
L 259.2 35.16 
" clip-path="url(#p517c0d23ed)" style="fill: none; stroke: #b0b0b0; stroke-width: 0.8; stroke-linecap: square"/>
     </g>
     <g id="line2d_26">
      <g>
       <use xlink:href="#m974793ca62" x="36" y="35.16" style="stroke: #000000; stroke-width: 2"/>
      </g>
     </g>
     <g id="text_14">
      <!-- 1.000 -->
      <g transform="translate(7.522188 37.439531) scale(0.06 -0.06)">
       <use xlink:href="#DejaVuSans-Bold-31"/>
       <use xlink:href="#DejaVuSans-Bold-2e" x="69.580078"/>
       <use xlink:href="#DejaVuSans-Bold-30" x="107.568359"/>
       <use xlink:href="#DejaVuSans-Bold-30" x="177.148438"/>
       <use xlink:href="#DejaVuSans-Bold-30" x="246.728516"/>
      </g>
     </g>
    </g>
    <g id="text_15">
     <!-- EVR -->
     <g transform="translate(1.4425 120.215156) rotate(-90) scale(0.1 -0.1)">
      <defs>
       <path id="DejaVuSans-Bold-45" d="M 588 4666 
L 3834 4666 
L 3834 3756 
L 1791 3756 
L 1791 2888 
L 3713 2888 
L 3713 1978 
L 1791 1978 
L 1791 909 
L 3903 909 
L 3903 0 
L 588 0 
L 588 4666 
z
" transform="scale(0.015625)"/>
       <path id="DejaVuSans-Bold-56" d="M 31 4666 
L 1241 4666 
L 2478 1222 
L 3713 4666 
L 4922 4666 
L 3194 0 
L 1759 0 
L 31 4666 
z
" transform="scale(0.015625)"/>
       <path id="DejaVuSans-Bold-52" d="M 2297 2597 
Q 2675 2597 2839 2737 
Q 3003 2878 3003 3200 
Q 3003 3519 2839 3656 
Q 2675 3794 2297 3794 
L 1791 3794 
L 1791 2597 
L 2297 2597 
z
M 1791 1766 
L 1791 0 
L 588 0 
L 588 4666 
L 2425 4666 
Q 3347 4666 3776 4356 
Q 4206 4047 4206 3378 
Q 4206 2916 3982 2619 
Q 3759 2322 3309 2181 
Q 3556 2125 3751 1926 
Q 3947 1728 4147 1325 
L 4800 0 
L 3519 0 
L 2950 1159 
Q 2778 1509 2601 1637 
Q 2425 1766 2131 1766 
L 1791 1766 
z
" transform="scale(0.015625)"/>
      </defs>
      <use xlink:href="#DejaVuSans-Bold-45"/>
      <use xlink:href="#DejaVuSans-Bold-56" x="68.310547"/>
      <use xlink:href="#DejaVuSans-Bold-52" x="145.703125"/>
     </g>
    </g>
   </g>
   <g id="line2d_27">
    <path d="M 46.145455 39.84477 
L 46.152218 39.837124 
L 46.21309 39.814874 
L 46.821818 39.729732 
L 49.527272 40.024771 
L 52.90909 40.44907 
L 63.054545 40.856226 
L 79.963636 43.417515 
L 96.872727 45.81043 
L 113.781818 46.268331 
L 147.6 47.066601 
L 181.418182 47.824593 
L 249.054545 49.258753 
" clip-path="url(#p517c0d23ed)" style="fill: none; stroke: #0095ef; stroke-width: 2; stroke-linecap: square"/>
    <defs>
     <path id="m84e2a9fc16" d="M 0 5 
C 1.326016 5 2.597899 4.473168 3.535534 3.535534 
C 4.473168 2.597899 5 1.326016 5 0 
C 5 -1.326016 4.473168 -2.597899 3.535534 -3.535534 
C 2.597899 -4.473168 1.326016 -5 0 -5 
C -1.326016 -5 -2.597899 -4.473168 -3.535534 -3.535534 
C -4.473168 -2.597899 -5 -1.326016 -5 0 
C -5 1.326016 -4.473168 2.597899 -3.535534 3.535534 
C -2.597899 4.473168 -1.326016 5 0 5 
z
" style="stroke: #0095ef"/>
    </defs>
    <g clip-path="url(#p517c0d23ed)">
     <use xlink:href="#m84e2a9fc16" x="46.145455" y="39.84477" style="fill: #0095ef; stroke: #0095ef"/>
     <use xlink:href="#m84e2a9fc16" x="46.152218" y="39.837124" style="fill: #0095ef; stroke: #0095ef"/>
     <use xlink:href="#m84e2a9fc16" x="46.21309" y="39.814874" style="fill: #0095ef; stroke: #0095ef"/>
     <use xlink:href="#m84e2a9fc16" x="46.821818" y="39.729732" style="fill: #0095ef; stroke: #0095ef"/>
     <use xlink:href="#m84e2a9fc16" x="49.527272" y="40.024771" style="fill: #0095ef; stroke: #0095ef"/>
     <use xlink:href="#m84e2a9fc16" x="52.90909" y="40.44907" style="fill: #0095ef; stroke: #0095ef"/>
     <use xlink:href="#m84e2a9fc16" x="63.054545" y="40.856226" style="fill: #0095ef; stroke: #0095ef"/>
     <use xlink:href="#m84e2a9fc16" x="79.963636" y="43.417515" style="fill: #0095ef; stroke: #0095ef"/>
     <use xlink:href="#m84e2a9fc16" x="96.872727" y="45.81043" style="fill: #0095ef; stroke: #0095ef"/>
     <use xlink:href="#m84e2a9fc16" x="113.781818" y="46.268331" style="fill: #0095ef; stroke: #0095ef"/>
     <use xlink:href="#m84e2a9fc16" x="147.6" y="47.066601" style="fill: #0095ef; stroke: #0095ef"/>
     <use xlink:href="#m84e2a9fc16" x="181.418182" y="47.824593" style="fill: #0095ef; stroke: #0095ef"/>
     <use xlink:href="#m84e2a9fc16" x="249.054545" y="49.258753" style="fill: #0095ef; stroke: #0095ef"/>
    </g>
   </g>
   <g id="line2d_28">
    <path d="M 46.145455 72.664083 
L 46.152218 72.64562 
L 46.21309 72.662336 
L 46.821818 72.748168 
L 49.527272 73.677295 
L 52.90909 74.375557 
L 63.054545 76.977609 
L 79.963636 80.246836 
L 96.872727 83.721431 
L 113.781818 96.224704 
L 147.6 93.61639 
L 181.418182 100.222888 
L 249.054545 113.185412 
" clip-path="url(#p517c0d23ed)" style="fill: none; stroke: #efca00; stroke-width: 2; stroke-linecap: square"/>
    <defs>
     <path id="m441f71d453" d="M 0 5 
C 1.326016 5 2.597899 4.473168 3.535534 3.535534 
C 4.473168 2.597899 5 1.326016 5 0 
C 5 -1.326016 4.473168 -2.597899 3.535534 -3.535534 
C 2.597899 -4.473168 1.326016 -5 0 -5 
C -1.326016 -5 -2.597899 -4.473168 -3.535534 -3.535534 
C -4.473168 -2.597899 -5 -1.326016 -5 0 
C -5 1.326016 -4.473168 2.597899 -3.535534 3.535534 
C -2.597899 4.473168 -1.326016 5 0 5 
z
" style="stroke: #efca00"/>
    </defs>
    <g clip-path="url(#p517c0d23ed)">
     <use xlink:href="#m441f71d453" x="46.145455" y="72.664083" style="fill: #efca00; stroke: #efca00"/>
     <use xlink:href="#m441f71d453" x="46.152218" y="72.64562" style="fill: #efca00; stroke: #efca00"/>
     <use xlink:href="#m441f71d453" x="46.21309" y="72.662336" style="fill: #efca00; stroke: #efca00"/>
     <use xlink:href="#m441f71d453" x="46.821818" y="72.748168" style="fill: #efca00; stroke: #efca00"/>
     <use xlink:href="#m441f71d453" x="49.527272" y="73.677295" style="fill: #efca00; stroke: #efca00"/>
     <use xlink:href="#m441f71d453" x="52.90909" y="74.375557" style="fill: #efca00; stroke: #efca00"/>
     <use xlink:href="#m441f71d453" x="63.054545" y="76.977609" style="fill: #efca00; stroke: #efca00"/>
     <use xlink:href="#m441f71d453" x="79.963636" y="80.246836" style="fill: #efca00; stroke: #efca00"/>
     <use xlink:href="#m441f71d453" x="96.872727" y="83.721431" style="fill: #efca00; stroke: #efca00"/>
     <use xlink:href="#m441f71d453" x="113.781818" y="96.224704" style="fill: #efca00; stroke: #efca00"/>
     <use xlink:href="#m441f71d453" x="147.6" y="93.61639" style="fill: #efca00; stroke: #efca00"/>
     <use xlink:href="#m441f71d453" x="181.418182" y="100.222888" style="fill: #efca00; stroke: #efca00"/>
     <use xlink:href="#m441f71d453" x="249.054545" y="113.185412" style="fill: #efca00; stroke: #efca00"/>
    </g>
   </g>
   <g id="line2d_29">
    <path d="M 46.145455 39.721323 
L 46.152218 39.724277 
L 46.21309 39.689466 
L 46.821818 39.870374 
L 49.527272 40.671177 
L 52.90909 41.262363 
L 63.054545 42.341761 
L 79.963636 44.225982 
L 96.872727 45.810515 
L 113.781818 47.260324 
L 147.6 49.1541 
L 181.418182 50.413169 
L 249.054545 49.494128 
" clip-path="url(#p517c0d23ed)" style="fill: none; stroke: #f31d64; stroke-width: 2; stroke-linecap: square"/>
    <defs>
     <path id="m5e38eb89df" d="M 0 5 
C 1.326016 5 2.597899 4.473168 3.535534 3.535534 
C 4.473168 2.597899 5 1.326016 5 0 
C 5 -1.326016 4.473168 -2.597899 3.535534 -3.535534 
C 2.597899 -4.473168 1.326016 -5 0 -5 
C -1.326016 -5 -2.597899 -4.473168 -3.535534 -3.535534 
C -4.473168 -2.597899 -5 -1.326016 -5 0 
C -5 1.326016 -4.473168 2.597899 -3.535534 3.535534 
C -2.597899 4.473168 -1.326016 5 0 5 
z
" style="stroke: #f31d64"/>
    </defs>
    <g clip-path="url(#p517c0d23ed)">
     <use xlink:href="#m5e38eb89df" x="46.145455" y="39.721323" style="fill: #f31d64; stroke: #f31d64"/>
     <use xlink:href="#m5e38eb89df" x="46.152218" y="39.724277" style="fill: #f31d64; stroke: #f31d64"/>
     <use xlink:href="#m5e38eb89df" x="46.21309" y="39.689466" style="fill: #f31d64; stroke: #f31d64"/>
     <use xlink:href="#m5e38eb89df" x="46.821818" y="39.870374" style="fill: #f31d64; stroke: #f31d64"/>
     <use xlink:href="#m5e38eb89df" x="49.527272" y="40.671177" style="fill: #f31d64; stroke: #f31d64"/>
     <use xlink:href="#m5e38eb89df" x="52.90909" y="41.262363" style="fill: #f31d64; stroke: #f31d64"/>
     <use xlink:href="#m5e38eb89df" x="63.054545" y="42.341761" style="fill: #f31d64; stroke: #f31d64"/>
     <use xlink:href="#m5e38eb89df" x="79.963636" y="44.225982" style="fill: #f31d64; stroke: #f31d64"/>
     <use xlink:href="#m5e38eb89df" x="96.872727" y="45.810515" style="fill: #f31d64; stroke: #f31d64"/>
     <use xlink:href="#m5e38eb89df" x="113.781818" y="47.260324" style="fill: #f31d64; stroke: #f31d64"/>
     <use xlink:href="#m5e38eb89df" x="147.6" y="49.1541" style="fill: #f31d64; stroke: #f31d64"/>
     <use xlink:href="#m5e38eb89df" x="181.418182" y="50.413169" style="fill: #f31d64; stroke: #f31d64"/>
     <use xlink:href="#m5e38eb89df" x="249.054545" y="49.494128" style="fill: #f31d64; stroke: #f31d64"/>
    </g>
   </g>
   <g id="line2d_30">
    <path d="M 46.145455 72.76536 
L 46.152218 72.843899 
L 46.21309 72.819408 
L 46.821818 72.928627 
L 49.527272 73.685072 
L 52.90909 75.42507 
L 63.054545 79.01144 
L 79.963636 84.916139 
L 96.872727 90.407082 
L 113.781818 95.046144 
L 147.6 102.842145 
L 181.418182 109.92685 
L 249.054545 123.413079 
" clip-path="url(#p517c0d23ed)" style="fill: none; stroke: #6a38b3; stroke-width: 2; stroke-linecap: square"/>
    <defs>
     <path id="mcd02678b81" d="M 0 5 
C 1.326016 5 2.597899 4.473168 3.535534 3.535534 
C 4.473168 2.597899 5 1.326016 5 0 
C 5 -1.326016 4.473168 -2.597899 3.535534 -3.535534 
C 2.597899 -4.473168 1.326016 -5 0 -5 
C -1.326016 -5 -2.597899 -4.473168 -3.535534 -3.535534 
C -4.473168 -2.597899 -5 -1.326016 -5 0 
C -5 1.326016 -4.473168 2.597899 -3.535534 3.535534 
C -2.597899 4.473168 -1.326016 5 0 5 
z
" style="stroke: #6a38b3"/>
    </defs>
    <g clip-path="url(#p517c0d23ed)">
     <use xlink:href="#mcd02678b81" x="46.145455" y="72.76536" style="fill: #6a38b3; stroke: #6a38b3"/>
     <use xlink:href="#mcd02678b81" x="46.152218" y="72.843899" style="fill: #6a38b3; stroke: #6a38b3"/>
     <use xlink:href="#mcd02678b81" x="46.21309" y="72.819408" style="fill: #6a38b3; stroke: #6a38b3"/>
     <use xlink:href="#mcd02678b81" x="46.821818" y="72.928627" style="fill: #6a38b3; stroke: #6a38b3"/>
     <use xlink:href="#mcd02678b81" x="49.527272" y="73.685072" style="fill: #6a38b3; stroke: #6a38b3"/>
     <use xlink:href="#mcd02678b81" x="52.90909" y="75.42507" style="fill: #6a38b3; stroke: #6a38b3"/>
     <use xlink:href="#mcd02678b81" x="63.054545" y="79.01144" style="fill: #6a38b3; stroke: #6a38b3"/>
     <use xlink:href="#mcd02678b81" x="79.963636" y="84.916139" style="fill: #6a38b3; stroke: #6a38b3"/>
     <use xlink:href="#mcd02678b81" x="96.872727" y="90.407082" style="fill: #6a38b3; stroke: #6a38b3"/>
     <use xlink:href="#mcd02678b81" x="113.781818" y="95.046144" style="fill: #6a38b3; stroke: #6a38b3"/>
     <use xlink:href="#mcd02678b81" x="147.6" y="102.842145" style="fill: #6a38b3; stroke: #6a38b3"/>
     <use xlink:href="#mcd02678b81" x="181.418182" y="109.92685" style="fill: #6a38b3; stroke: #6a38b3"/>
     <use xlink:href="#mcd02678b81" x="249.054545" y="123.413079" style="fill: #6a38b3; stroke: #6a38b3"/>
    </g>
   </g>
   <g id="patch_3">
    <path d="M 36 192.24 
L 36 25.92 
" style="fill: none; stroke: #000000; stroke-width: 0.8; stroke-linejoin: miter; stroke-linecap: square"/>
   </g>
   <g id="patch_4">
    <path d="M 259.2 192.24 
L 259.2 25.92 
" style="fill: none; stroke: #000000; stroke-width: 0.8; stroke-linejoin: miter; stroke-linecap: square"/>
   </g>
   <g id="patch_5">
    <path d="M 36 192.24 
L 259.2 192.24 
" style="fill: none; stroke: #000000; stroke-width: 0.8; stroke-linejoin: miter; stroke-linecap: square"/>
   </g>
   <g id="patch_6">
    <path d="M 36 25.92 
L 259.2 25.92 
" style="fill: none; stroke: #000000; stroke-width: 0.8; stroke-linejoin: miter; stroke-linecap: square"/>
   </g>
   <g id="legend_1">
    <g id="patch_7">
     <path d="M 43 187.24 
L 234.371875 187.24 
Q 236.371875 187.24 236.371875 185.24 
L 236.371875 127.37125 
Q 236.371875 125.37125 234.371875 125.37125 
L 43 125.37125 
Q 41 125.37125 41 127.37125 
L 41 185.24 
Q 41 187.24 43 187.24 
z
" style="fill: #ffffff; opacity: 0.8; stroke: #cccccc; stroke-linejoin: miter"/>
    </g>
    <g id="line2d_31">
     <path d="M 45 133.469687 
L 55 133.469687 
L 65 133.469687 
" style="fill: none; stroke: #0095ef; stroke-width: 2; stroke-linecap: square"/>
     <g>
      <use xlink:href="#m84e2a9fc16" x="55" y="133.469687" style="fill: #0095ef; stroke: #0095ef"/>
     </g>
    </g>
    <g id="text_16">
     <!-- Grain 1 Spectral Sparseness -->
     <g transform="translate(73 136.969687) scale(0.1 -0.1)">
      <defs>
       <path id="DejaVuSans-Bold-47" d="M 4781 347 
Q 4331 128 3847 18 
Q 3363 -91 2847 -91 
Q 1681 -91 1000 561 
Q 319 1213 319 2328 
Q 319 3456 1012 4103 
Q 1706 4750 2913 4750 
Q 3378 4750 3804 4662 
Q 4231 4575 4609 4403 
L 4609 3438 
Q 4219 3659 3833 3768 
Q 3447 3878 3059 3878 
Q 2341 3878 1952 3476 
Q 1563 3075 1563 2328 
Q 1563 1588 1938 1184 
Q 2313 781 3003 781 
Q 3191 781 3352 804 
Q 3513 828 3641 878 
L 3641 1784 
L 2906 1784 
L 2906 2591 
L 4781 2591 
L 4781 347 
z
" transform="scale(0.015625)"/>
       <path id="DejaVuSans-Bold-69" d="M 538 3500 
L 1656 3500 
L 1656 0 
L 538 0 
L 538 3500 
z
M 538 4863 
L 1656 4863 
L 1656 3950 
L 538 3950 
L 538 4863 
z
" transform="scale(0.015625)"/>
       <path id="DejaVuSans-Bold-63" d="M 3366 3391 
L 3366 2478 
Q 3138 2634 2908 2709 
Q 2678 2784 2431 2784 
Q 1963 2784 1702 2511 
Q 1441 2238 1441 1747 
Q 1441 1256 1702 982 
Q 1963 709 2431 709 
Q 2694 709 2930 787 
Q 3166 866 3366 1019 
L 3366 103 
Q 3103 6 2833 -42 
Q 2563 -91 2291 -91 
Q 1344 -91 809 395 
Q 275 881 275 1747 
Q 275 2613 809 3098 
Q 1344 3584 2291 3584 
Q 2566 3584 2833 3536 
Q 3100 3488 3366 3391 
z
" transform="scale(0.015625)"/>
       <path id="DejaVuSans-Bold-74" d="M 1759 4494 
L 1759 3500 
L 2913 3500 
L 2913 2700 
L 1759 2700 
L 1759 1216 
Q 1759 972 1856 886 
Q 1953 800 2241 800 
L 2816 800 
L 2816 0 
L 1856 0 
Q 1194 0 917 276 
Q 641 553 641 1216 
L 641 2700 
L 84 2700 
L 84 3500 
L 641 3500 
L 641 4494 
L 1759 4494 
z
" transform="scale(0.015625)"/>
      </defs>
      <use xlink:href="#DejaVuSans-Bold-47"/>
      <use xlink:href="#DejaVuSans-Bold-72" x="82.080078"/>
      <use xlink:href="#DejaVuSans-Bold-61" x="131.396484"/>
      <use xlink:href="#DejaVuSans-Bold-69" x="198.876953"/>
      <use xlink:href="#DejaVuSans-Bold-6e" x="233.154297"/>
      <use xlink:href="#DejaVuSans-Bold-20" x="304.345703"/>
      <use xlink:href="#DejaVuSans-Bold-31" x="339.160156"/>
      <use xlink:href="#DejaVuSans-Bold-20" x="408.740234"/>
      <use xlink:href="#DejaVuSans-Bold-53" x="443.554688"/>
      <use xlink:href="#DejaVuSans-Bold-70" x="515.576172"/>
      <use xlink:href="#DejaVuSans-Bold-65" x="587.158203"/>
      <use xlink:href="#DejaVuSans-Bold-63" x="654.980469"/>
      <use xlink:href="#DejaVuSans-Bold-74" x="714.257812"/>
      <use xlink:href="#DejaVuSans-Bold-72" x="762.060547"/>
      <use xlink:href="#DejaVuSans-Bold-61" x="811.376953"/>
      <use xlink:href="#DejaVuSans-Bold-6c" x="878.857422"/>
      <use xlink:href="#DejaVuSans-Bold-20" x="913.134766"/>
      <use xlink:href="#DejaVuSans-Bold-53" x="947.949219"/>
      <use xlink:href="#DejaVuSans-Bold-70" x="1019.970703"/>
      <use xlink:href="#DejaVuSans-Bold-61" x="1091.552734"/>
      <use xlink:href="#DejaVuSans-Bold-72" x="1159.033203"/>
      <use xlink:href="#DejaVuSans-Bold-73" x="1208.349609"/>
      <use xlink:href="#DejaVuSans-Bold-65" x="1267.871094"/>
      <use xlink:href="#DejaVuSans-Bold-6e" x="1335.693359"/>
      <use xlink:href="#DejaVuSans-Bold-65" x="1406.884766"/>
      <use xlink:href="#DejaVuSans-Bold-73" x="1474.707031"/>
      <use xlink:href="#DejaVuSans-Bold-73" x="1534.228516"/>
     </g>
    </g>
    <g id="line2d_32">
     <path d="M 45 148.147812 
L 55 148.147812 
L 65 148.147812 
" style="fill: none; stroke: #efca00; stroke-width: 2; stroke-linecap: square"/>
     <g>
      <use xlink:href="#m441f71d453" x="55" y="148.147812" style="fill: #efca00; stroke: #efca00"/>
     </g>
    </g>
    <g id="text_17">
     <!-- Grain 2 Spectral Sparseness -->
     <g transform="translate(73 151.647812) scale(0.1 -0.1)">
      <use xlink:href="#DejaVuSans-Bold-47"/>
      <use xlink:href="#DejaVuSans-Bold-72" x="82.080078"/>
      <use xlink:href="#DejaVuSans-Bold-61" x="131.396484"/>
      <use xlink:href="#DejaVuSans-Bold-69" x="198.876953"/>
      <use xlink:href="#DejaVuSans-Bold-6e" x="233.154297"/>
      <use xlink:href="#DejaVuSans-Bold-20" x="304.345703"/>
      <use xlink:href="#DejaVuSans-Bold-32" x="339.160156"/>
      <use xlink:href="#DejaVuSans-Bold-20" x="408.740234"/>
      <use xlink:href="#DejaVuSans-Bold-53" x="443.554688"/>
      <use xlink:href="#DejaVuSans-Bold-70" x="515.576172"/>
      <use xlink:href="#DejaVuSans-Bold-65" x="587.158203"/>
      <use xlink:href="#DejaVuSans-Bold-63" x="654.980469"/>
      <use xlink:href="#DejaVuSans-Bold-74" x="714.257812"/>
      <use xlink:href="#DejaVuSans-Bold-72" x="762.060547"/>
      <use xlink:href="#DejaVuSans-Bold-61" x="811.376953"/>
      <use xlink:href="#DejaVuSans-Bold-6c" x="878.857422"/>
      <use xlink:href="#DejaVuSans-Bold-20" x="913.134766"/>
      <use xlink:href="#DejaVuSans-Bold-53" x="947.949219"/>
      <use xlink:href="#DejaVuSans-Bold-70" x="1019.970703"/>
      <use xlink:href="#DejaVuSans-Bold-61" x="1091.552734"/>
      <use xlink:href="#DejaVuSans-Bold-72" x="1159.033203"/>
      <use xlink:href="#DejaVuSans-Bold-73" x="1208.349609"/>
      <use xlink:href="#DejaVuSans-Bold-65" x="1267.871094"/>
      <use xlink:href="#DejaVuSans-Bold-6e" x="1335.693359"/>
      <use xlink:href="#DejaVuSans-Bold-65" x="1406.884766"/>
      <use xlink:href="#DejaVuSans-Bold-73" x="1474.707031"/>
      <use xlink:href="#DejaVuSans-Bold-73" x="1534.228516"/>
     </g>
    </g>
    <g id="line2d_33">
     <path d="M 45 162.825938 
L 55 162.825938 
L 65 162.825938 
" style="fill: none; stroke: #f31d64; stroke-width: 2; stroke-linecap: square"/>
     <g>
      <use xlink:href="#m5e38eb89df" x="55" y="162.825938" style="fill: #f31d64; stroke: #f31d64"/>
     </g>
    </g>
    <g id="text_18">
     <!-- Grain 1 Image Sparseness -->
     <g transform="translate(73 166.325938) scale(0.1 -0.1)">
      <defs>
       <path id="DejaVuSans-Bold-49" d="M 588 4666 
L 1791 4666 
L 1791 0 
L 588 0 
L 588 4666 
z
" transform="scale(0.015625)"/>
       <path id="DejaVuSans-Bold-6d" d="M 3781 2919 
Q 3994 3244 4286 3414 
Q 4578 3584 4928 3584 
Q 5531 3584 5847 3212 
Q 6163 2841 6163 2131 
L 6163 0 
L 5038 0 
L 5038 1825 
Q 5041 1866 5042 1909 
Q 5044 1953 5044 2034 
Q 5044 2406 4934 2573 
Q 4825 2741 4581 2741 
Q 4263 2741 4089 2478 
Q 3916 2216 3909 1719 
L 3909 0 
L 2784 0 
L 2784 1825 
Q 2784 2406 2684 2573 
Q 2584 2741 2328 2741 
Q 2006 2741 1831 2477 
Q 1656 2213 1656 1722 
L 1656 0 
L 531 0 
L 531 3500 
L 1656 3500 
L 1656 2988 
Q 1863 3284 2130 3434 
Q 2397 3584 2719 3584 
Q 3081 3584 3359 3409 
Q 3638 3234 3781 2919 
z
" transform="scale(0.015625)"/>
       <path id="DejaVuSans-Bold-67" d="M 2919 594 
Q 2688 288 2409 144 
Q 2131 0 1766 0 
Q 1125 0 706 504 
Q 288 1009 288 1791 
Q 288 2575 706 3076 
Q 1125 3578 1766 3578 
Q 2131 3578 2409 3434 
Q 2688 3291 2919 2981 
L 2919 3500 
L 4044 3500 
L 4044 353 
Q 4044 -491 3511 -936 
Q 2978 -1381 1966 -1381 
Q 1638 -1381 1331 -1331 
Q 1025 -1281 716 -1178 
L 716 -306 
Q 1009 -475 1290 -558 
Q 1572 -641 1856 -641 
Q 2406 -641 2662 -400 
Q 2919 -159 2919 353 
L 2919 594 
z
M 2181 2772 
Q 1834 2772 1640 2515 
Q 1447 2259 1447 1791 
Q 1447 1309 1634 1061 
Q 1822 813 2181 813 
Q 2531 813 2725 1069 
Q 2919 1325 2919 1791 
Q 2919 2259 2725 2515 
Q 2531 2772 2181 2772 
z
" transform="scale(0.015625)"/>
      </defs>
      <use xlink:href="#DejaVuSans-Bold-47"/>
      <use xlink:href="#DejaVuSans-Bold-72" x="82.080078"/>
      <use xlink:href="#DejaVuSans-Bold-61" x="131.396484"/>
      <use xlink:href="#DejaVuSans-Bold-69" x="198.876953"/>
      <use xlink:href="#DejaVuSans-Bold-6e" x="233.154297"/>
      <use xlink:href="#DejaVuSans-Bold-20" x="304.345703"/>
      <use xlink:href="#DejaVuSans-Bold-31" x="339.160156"/>
      <use xlink:href="#DejaVuSans-Bold-20" x="408.740234"/>
      <use xlink:href="#DejaVuSans-Bold-49" x="443.554688"/>
      <use xlink:href="#DejaVuSans-Bold-6d" x="480.761719"/>
      <use xlink:href="#DejaVuSans-Bold-61" x="584.960938"/>
      <use xlink:href="#DejaVuSans-Bold-67" x="652.441406"/>
      <use xlink:href="#DejaVuSans-Bold-65" x="724.023438"/>
      <use xlink:href="#DejaVuSans-Bold-20" x="791.845703"/>
      <use xlink:href="#DejaVuSans-Bold-53" x="826.660156"/>
      <use xlink:href="#DejaVuSans-Bold-70" x="898.681641"/>
      <use xlink:href="#DejaVuSans-Bold-61" x="970.263672"/>
      <use xlink:href="#DejaVuSans-Bold-72" x="1037.744141"/>
      <use xlink:href="#DejaVuSans-Bold-73" x="1087.060547"/>
      <use xlink:href="#DejaVuSans-Bold-65" x="1146.582031"/>
      <use xlink:href="#DejaVuSans-Bold-6e" x="1214.404297"/>
      <use xlink:href="#DejaVuSans-Bold-65" x="1285.595703"/>
      <use xlink:href="#DejaVuSans-Bold-73" x="1353.417969"/>
      <use xlink:href="#DejaVuSans-Bold-73" x="1412.939453"/>
     </g>
    </g>
    <g id="line2d_34">
     <path d="M 45 177.582188 
L 55 177.582188 
L 65 177.582188 
" style="fill: none; stroke: #6a38b3; stroke-width: 2; stroke-linecap: square"/>
     <g>
      <use xlink:href="#mcd02678b81" x="55" y="177.582188" style="fill: #6a38b3; stroke: #6a38b3"/>
     </g>
    </g>
    <g id="text_19">
     <!-- Grain 2 Image Sparseness -->
     <g transform="translate(73 181.082188) scale(0.1 -0.1)">
      <use xlink:href="#DejaVuSans-Bold-47"/>
      <use xlink:href="#DejaVuSans-Bold-72" x="82.080078"/>
      <use xlink:href="#DejaVuSans-Bold-61" x="131.396484"/>
      <use xlink:href="#DejaVuSans-Bold-69" x="198.876953"/>
      <use xlink:href="#DejaVuSans-Bold-6e" x="233.154297"/>
      <use xlink:href="#DejaVuSans-Bold-20" x="304.345703"/>
      <use xlink:href="#DejaVuSans-Bold-32" x="339.160156"/>
      <use xlink:href="#DejaVuSans-Bold-20" x="408.740234"/>
      <use xlink:href="#DejaVuSans-Bold-49" x="443.554688"/>
      <use xlink:href="#DejaVuSans-Bold-6d" x="480.761719"/>
      <use xlink:href="#DejaVuSans-Bold-61" x="584.960938"/>
      <use xlink:href="#DejaVuSans-Bold-67" x="652.441406"/>
      <use xlink:href="#DejaVuSans-Bold-65" x="724.023438"/>
      <use xlink:href="#DejaVuSans-Bold-20" x="791.845703"/>
      <use xlink:href="#DejaVuSans-Bold-53" x="826.660156"/>
      <use xlink:href="#DejaVuSans-Bold-70" x="898.681641"/>
      <use xlink:href="#DejaVuSans-Bold-61" x="970.263672"/>
      <use xlink:href="#DejaVuSans-Bold-72" x="1037.744141"/>
      <use xlink:href="#DejaVuSans-Bold-73" x="1087.060547"/>
      <use xlink:href="#DejaVuSans-Bold-65" x="1146.582031"/>
      <use xlink:href="#DejaVuSans-Bold-6e" x="1214.404297"/>
      <use xlink:href="#DejaVuSans-Bold-65" x="1285.595703"/>
      <use xlink:href="#DejaVuSans-Bold-73" x="1353.417969"/>
      <use xlink:href="#DejaVuSans-Bold-73" x="1412.939453"/>
     </g>
    </g>
   </g>
  </g>
  <g id="text_20">
   <!-- Explained Variance for NMF Sparseness Investigation -->
   <g transform="translate(11.041406 11.918437) scale(0.1 -0.1)">
    <defs>
     <path id="DejaVuSans-45" d="M 628 4666 
L 3578 4666 
L 3578 4134 
L 1259 4134 
L 1259 2753 
L 3481 2753 
L 3481 2222 
L 1259 2222 
L 1259 531 
L 3634 531 
L 3634 0 
L 628 0 
L 628 4666 
z
" transform="scale(0.015625)"/>
     <path id="DejaVuSans-78" d="M 3513 3500 
L 2247 1797 
L 3578 0 
L 2900 0 
L 1881 1375 
L 863 0 
L 184 0 
L 1544 1831 
L 300 3500 
L 978 3500 
L 1906 2253 
L 2834 3500 
L 3513 3500 
z
" transform="scale(0.015625)"/>
     <path id="DejaVuSans-70" d="M 1159 525 
L 1159 -1331 
L 581 -1331 
L 581 3500 
L 1159 3500 
L 1159 2969 
Q 1341 3281 1617 3432 
Q 1894 3584 2278 3584 
Q 2916 3584 3314 3078 
Q 3713 2572 3713 1747 
Q 3713 922 3314 415 
Q 2916 -91 2278 -91 
Q 1894 -91 1617 61 
Q 1341 213 1159 525 
z
M 3116 1747 
Q 3116 2381 2855 2742 
Q 2594 3103 2138 3103 
Q 1681 3103 1420 2742 
Q 1159 2381 1159 1747 
Q 1159 1113 1420 752 
Q 1681 391 2138 391 
Q 2594 391 2855 752 
Q 3116 1113 3116 1747 
z
" transform="scale(0.015625)"/>
     <path id="DejaVuSans-6c" d="M 603 4863 
L 1178 4863 
L 1178 0 
L 603 0 
L 603 4863 
z
" transform="scale(0.015625)"/>
     <path id="DejaVuSans-61" d="M 2194 1759 
Q 1497 1759 1228 1600 
Q 959 1441 959 1056 
Q 959 750 1161 570 
Q 1363 391 1709 391 
Q 2188 391 2477 730 
Q 2766 1069 2766 1631 
L 2766 1759 
L 2194 1759 
z
M 3341 1997 
L 3341 0 
L 2766 0 
L 2766 531 
Q 2569 213 2275 61 
Q 1981 -91 1556 -91 
Q 1019 -91 701 211 
Q 384 513 384 1019 
Q 384 1609 779 1909 
Q 1175 2209 1959 2209 
L 2766 2209 
L 2766 2266 
Q 2766 2663 2505 2880 
Q 2244 3097 1772 3097 
Q 1472 3097 1187 3025 
Q 903 2953 641 2809 
L 641 3341 
Q 956 3463 1253 3523 
Q 1550 3584 1831 3584 
Q 2591 3584 2966 3190 
Q 3341 2797 3341 1997 
z
" transform="scale(0.015625)"/>
     <path id="DejaVuSans-69" d="M 603 3500 
L 1178 3500 
L 1178 0 
L 603 0 
L 603 3500 
z
M 603 4863 
L 1178 4863 
L 1178 4134 
L 603 4134 
L 603 4863 
z
" transform="scale(0.015625)"/>
     <path id="DejaVuSans-6e" d="M 3513 2113 
L 3513 0 
L 2938 0 
L 2938 2094 
Q 2938 2591 2744 2837 
Q 2550 3084 2163 3084 
Q 1697 3084 1428 2787 
Q 1159 2491 1159 1978 
L 1159 0 
L 581 0 
L 581 3500 
L 1159 3500 
L 1159 2956 
Q 1366 3272 1645 3428 
Q 1925 3584 2291 3584 
Q 2894 3584 3203 3211 
Q 3513 2838 3513 2113 
z
" transform="scale(0.015625)"/>
     <path id="DejaVuSans-65" d="M 3597 1894 
L 3597 1613 
L 953 1613 
Q 991 1019 1311 708 
Q 1631 397 2203 397 
Q 2534 397 2845 478 
Q 3156 559 3463 722 
L 3463 178 
Q 3153 47 2828 -22 
Q 2503 -91 2169 -91 
Q 1331 -91 842 396 
Q 353 884 353 1716 
Q 353 2575 817 3079 
Q 1281 3584 2069 3584 
Q 2775 3584 3186 3129 
Q 3597 2675 3597 1894 
z
M 3022 2063 
Q 3016 2534 2758 2815 
Q 2500 3097 2075 3097 
Q 1594 3097 1305 2825 
Q 1016 2553 972 2059 
L 3022 2063 
z
" transform="scale(0.015625)"/>
     <path id="DejaVuSans-64" d="M 2906 2969 
L 2906 4863 
L 3481 4863 
L 3481 0 
L 2906 0 
L 2906 525 
Q 2725 213 2448 61 
Q 2172 -91 1784 -91 
Q 1150 -91 751 415 
Q 353 922 353 1747 
Q 353 2572 751 3078 
Q 1150 3584 1784 3584 
Q 2172 3584 2448 3432 
Q 2725 3281 2906 2969 
z
M 947 1747 
Q 947 1113 1208 752 
Q 1469 391 1925 391 
Q 2381 391 2643 752 
Q 2906 1113 2906 1747 
Q 2906 2381 2643 2742 
Q 2381 3103 1925 3103 
Q 1469 3103 1208 2742 
Q 947 2381 947 1747 
z
" transform="scale(0.015625)"/>
     <path id="DejaVuSans-20" transform="scale(0.015625)"/>
     <path id="DejaVuSans-56" d="M 1831 0 
L 50 4666 
L 709 4666 
L 2188 738 
L 3669 4666 
L 4325 4666 
L 2547 0 
L 1831 0 
z
" transform="scale(0.015625)"/>
     <path id="DejaVuSans-72" d="M 2631 2963 
Q 2534 3019 2420 3045 
Q 2306 3072 2169 3072 
Q 1681 3072 1420 2755 
Q 1159 2438 1159 1844 
L 1159 0 
L 581 0 
L 581 3500 
L 1159 3500 
L 1159 2956 
Q 1341 3275 1631 3429 
Q 1922 3584 2338 3584 
Q 2397 3584 2469 3576 
Q 2541 3569 2628 3553 
L 2631 2963 
z
" transform="scale(0.015625)"/>
     <path id="DejaVuSans-63" d="M 3122 3366 
L 3122 2828 
Q 2878 2963 2633 3030 
Q 2388 3097 2138 3097 
Q 1578 3097 1268 2742 
Q 959 2388 959 1747 
Q 959 1106 1268 751 
Q 1578 397 2138 397 
Q 2388 397 2633 464 
Q 2878 531 3122 666 
L 3122 134 
Q 2881 22 2623 -34 
Q 2366 -91 2075 -91 
Q 1284 -91 818 406 
Q 353 903 353 1747 
Q 353 2603 823 3093 
Q 1294 3584 2113 3584 
Q 2378 3584 2631 3529 
Q 2884 3475 3122 3366 
z
" transform="scale(0.015625)"/>
     <path id="DejaVuSans-66" d="M 2375 4863 
L 2375 4384 
L 1825 4384 
Q 1516 4384 1395 4259 
Q 1275 4134 1275 3809 
L 1275 3500 
L 2222 3500 
L 2222 3053 
L 1275 3053 
L 1275 0 
L 697 0 
L 697 3053 
L 147 3053 
L 147 3500 
L 697 3500 
L 697 3744 
Q 697 4328 969 4595 
Q 1241 4863 1831 4863 
L 2375 4863 
z
" transform="scale(0.015625)"/>
     <path id="DejaVuSans-6f" d="M 1959 3097 
Q 1497 3097 1228 2736 
Q 959 2375 959 1747 
Q 959 1119 1226 758 
Q 1494 397 1959 397 
Q 2419 397 2687 759 
Q 2956 1122 2956 1747 
Q 2956 2369 2687 2733 
Q 2419 3097 1959 3097 
z
M 1959 3584 
Q 2709 3584 3137 3096 
Q 3566 2609 3566 1747 
Q 3566 888 3137 398 
Q 2709 -91 1959 -91 
Q 1206 -91 779 398 
Q 353 888 353 1747 
Q 353 2609 779 3096 
Q 1206 3584 1959 3584 
z
" transform="scale(0.015625)"/>
     <path id="DejaVuSans-4e" d="M 628 4666 
L 1478 4666 
L 3547 763 
L 3547 4666 
L 4159 4666 
L 4159 0 
L 3309 0 
L 1241 3903 
L 1241 0 
L 628 0 
L 628 4666 
z
" transform="scale(0.015625)"/>
     <path id="DejaVuSans-4d" d="M 628 4666 
L 1569 4666 
L 2759 1491 
L 3956 4666 
L 4897 4666 
L 4897 0 
L 4281 0 
L 4281 4097 
L 3078 897 
L 2444 897 
L 1241 4097 
L 1241 0 
L 628 0 
L 628 4666 
z
" transform="scale(0.015625)"/>
     <path id="DejaVuSans-46" d="M 628 4666 
L 3309 4666 
L 3309 4134 
L 1259 4134 
L 1259 2759 
L 3109 2759 
L 3109 2228 
L 1259 2228 
L 1259 0 
L 628 0 
L 628 4666 
z
" transform="scale(0.015625)"/>
     <path id="DejaVuSans-53" d="M 3425 4513 
L 3425 3897 
Q 3066 4069 2747 4153 
Q 2428 4238 2131 4238 
Q 1616 4238 1336 4038 
Q 1056 3838 1056 3469 
Q 1056 3159 1242 3001 
Q 1428 2844 1947 2747 
L 2328 2669 
Q 3034 2534 3370 2195 
Q 3706 1856 3706 1288 
Q 3706 609 3251 259 
Q 2797 -91 1919 -91 
Q 1588 -91 1214 -16 
Q 841 59 441 206 
L 441 856 
Q 825 641 1194 531 
Q 1563 422 1919 422 
Q 2459 422 2753 634 
Q 3047 847 3047 1241 
Q 3047 1584 2836 1778 
Q 2625 1972 2144 2069 
L 1759 2144 
Q 1053 2284 737 2584 
Q 422 2884 422 3419 
Q 422 4038 858 4394 
Q 1294 4750 2059 4750 
Q 2388 4750 2728 4690 
Q 3069 4631 3425 4513 
z
" transform="scale(0.015625)"/>
     <path id="DejaVuSans-73" d="M 2834 3397 
L 2834 2853 
Q 2591 2978 2328 3040 
Q 2066 3103 1784 3103 
Q 1356 3103 1142 2972 
Q 928 2841 928 2578 
Q 928 2378 1081 2264 
Q 1234 2150 1697 2047 
L 1894 2003 
Q 2506 1872 2764 1633 
Q 3022 1394 3022 966 
Q 3022 478 2636 193 
Q 2250 -91 1575 -91 
Q 1294 -91 989 -36 
Q 684 19 347 128 
L 347 722 
Q 666 556 975 473 
Q 1284 391 1588 391 
Q 1994 391 2212 530 
Q 2431 669 2431 922 
Q 2431 1156 2273 1281 
Q 2116 1406 1581 1522 
L 1381 1569 
Q 847 1681 609 1914 
Q 372 2147 372 2553 
Q 372 3047 722 3315 
Q 1072 3584 1716 3584 
Q 2034 3584 2315 3537 
Q 2597 3491 2834 3397 
z
" transform="scale(0.015625)"/>
     <path id="DejaVuSans-49" d="M 628 4666 
L 1259 4666 
L 1259 0 
L 628 0 
L 628 4666 
z
" transform="scale(0.015625)"/>
     <path id="DejaVuSans-76" d="M 191 3500 
L 800 3500 
L 1894 563 
L 2988 3500 
L 3597 3500 
L 2284 0 
L 1503 0 
L 191 3500 
z
" transform="scale(0.015625)"/>
     <path id="DejaVuSans-74" d="M 1172 4494 
L 1172 3500 
L 2356 3500 
L 2356 3053 
L 1172 3053 
L 1172 1153 
Q 1172 725 1289 603 
Q 1406 481 1766 481 
L 2356 481 
L 2356 0 
L 1766 0 
Q 1100 0 847 248 
Q 594 497 594 1153 
L 594 3053 
L 172 3053 
L 172 3500 
L 594 3500 
L 594 4494 
L 1172 4494 
z
" transform="scale(0.015625)"/>
     <path id="DejaVuSans-67" d="M 2906 1791 
Q 2906 2416 2648 2759 
Q 2391 3103 1925 3103 
Q 1463 3103 1205 2759 
Q 947 2416 947 1791 
Q 947 1169 1205 825 
Q 1463 481 1925 481 
Q 2391 481 2648 825 
Q 2906 1169 2906 1791 
z
M 3481 434 
Q 3481 -459 3084 -895 
Q 2688 -1331 1869 -1331 
Q 1566 -1331 1297 -1286 
Q 1028 -1241 775 -1147 
L 775 -588 
Q 1028 -725 1275 -790 
Q 1522 -856 1778 -856 
Q 2344 -856 2625 -561 
Q 2906 -266 2906 331 
L 2906 616 
Q 2728 306 2450 153 
Q 2172 0 1784 0 
Q 1141 0 747 490 
Q 353 981 353 1791 
Q 353 2603 747 3093 
Q 1141 3584 1784 3584 
Q 2172 3584 2450 3431 
Q 2728 3278 2906 2969 
L 2906 3500 
L 3481 3500 
L 3481 434 
z
" transform="scale(0.015625)"/>
    </defs>
    <use xlink:href="#DejaVuSans-45"/>
    <use xlink:href="#DejaVuSans-78" x="63.183594"/>
    <use xlink:href="#DejaVuSans-70" x="122.363281"/>
    <use xlink:href="#DejaVuSans-6c" x="185.839844"/>
    <use xlink:href="#DejaVuSans-61" x="213.623047"/>
    <use xlink:href="#DejaVuSans-69" x="274.902344"/>
    <use xlink:href="#DejaVuSans-6e" x="302.685547"/>
    <use xlink:href="#DejaVuSans-65" x="366.064453"/>
    <use xlink:href="#DejaVuSans-64" x="427.587891"/>
    <use xlink:href="#DejaVuSans-20" x="491.064453"/>
    <use xlink:href="#DejaVuSans-56" x="522.851562"/>
    <use xlink:href="#DejaVuSans-61" x="583.509766"/>
    <use xlink:href="#DejaVuSans-72" x="644.789062"/>
    <use xlink:href="#DejaVuSans-69" x="685.902344"/>
    <use xlink:href="#DejaVuSans-61" x="713.685547"/>
    <use xlink:href="#DejaVuSans-6e" x="774.964844"/>
    <use xlink:href="#DejaVuSans-63" x="838.34375"/>
    <use xlink:href="#DejaVuSans-65" x="893.324219"/>
    <use xlink:href="#DejaVuSans-20" x="954.847656"/>
    <use xlink:href="#DejaVuSans-66" x="986.634766"/>
    <use xlink:href="#DejaVuSans-6f" x="1021.839844"/>
    <use xlink:href="#DejaVuSans-72" x="1083.021484"/>
    <use xlink:href="#DejaVuSans-20" x="1124.134766"/>
    <use xlink:href="#DejaVuSans-4e" x="1155.921875"/>
    <use xlink:href="#DejaVuSans-4d" x="1230.726562"/>
    <use xlink:href="#DejaVuSans-46" x="1317.005859"/>
    <use xlink:href="#DejaVuSans-20" x="1374.525391"/>
    <use xlink:href="#DejaVuSans-53" x="1406.3125"/>
    <use xlink:href="#DejaVuSans-70" x="1469.789062"/>
    <use xlink:href="#DejaVuSans-61" x="1533.265625"/>
    <use xlink:href="#DejaVuSans-72" x="1594.544922"/>
    <use xlink:href="#DejaVuSans-73" x="1635.658203"/>
    <use xlink:href="#DejaVuSans-65" x="1687.757812"/>
    <use xlink:href="#DejaVuSans-6e" x="1749.28125"/>
    <use xlink:href="#DejaVuSans-65" x="1812.660156"/>
    <use xlink:href="#DejaVuSans-73" x="1874.183594"/>
    <use xlink:href="#DejaVuSans-73" x="1926.283203"/>
    <use xlink:href="#DejaVuSans-20" x="1978.382812"/>
    <use xlink:href="#DejaVuSans-49" x="2010.169922"/>
    <use xlink:href="#DejaVuSans-6e" x="2039.662109"/>
    <use xlink:href="#DejaVuSans-76" x="2103.041016"/>
    <use xlink:href="#DejaVuSans-65" x="2162.220703"/>
    <use xlink:href="#DejaVuSans-73" x="2223.744141"/>
    <use xlink:href="#DejaVuSans-74" x="2275.84375"/>
    <use xlink:href="#DejaVuSans-69" x="2315.052734"/>
    <use xlink:href="#DejaVuSans-67" x="2342.835938"/>
    <use xlink:href="#DejaVuSans-61" x="2406.3125"/>
    <use xlink:href="#DejaVuSans-74" x="2467.591797"/>
    <use xlink:href="#DejaVuSans-69" x="2506.800781"/>
    <use xlink:href="#DejaVuSans-6f" x="2534.583984"/>
    <use xlink:href="#DejaVuSans-6e" x="2595.765625"/>
   </g>
  </g>
 </g>
 <defs>
  <clipPath id="p517c0d23ed">
   <rect x="36" y="25.92" width="223.2" height="166.32"/>
  </clipPath>
 </defs>
</svg>
